<svg width="32" height="32" viewBox="0 0 32 32" fill="none" xmlns="http://www.w3.org/2000/svg">
<path d="M9.5 17.3003C9.5 20.6003 12.2 23.3003 15.5 23.3003C18.8 23.3003 21.5 20.6003 21.5 17.3003C21.5 14.0003 18.8 11.3003 15.5 11.3003C12.2 11.3003 9.5 14.0003 9.5 17.3003ZM15.5 13.3003C17.7 13.3003 19.5 15.1003 19.5 17.3003C19.5 19.5003 17.7 21.3003 15.5 21.3003C13.3 21.3003 11.5 19.5003 11.5 17.3003C11.5 15.1003 13.3 13.3003 15.5 13.3003Z" fill="#343434"/>
<path d="M29.5 8.7002H26.5V5.7002C26.5 5.1002 26.1 4.7002 25.5 4.7002C24.9 4.7002 24.5 5.1002 24.5 5.7002V8.7002H21.5C20.9 8.7002 20.5 9.1002 20.5 9.7002C20.5 10.3002 20.9 10.7002 21.5 10.7002H24.5V13.7002C24.5 14.3002 24.9 14.7002 25.5 14.7002C26.1 14.7002 26.5 14.3002 26.5 13.7002V10.7002H29.5C30.1 10.7002 30.5 10.3002 30.5 9.7002C30.5 9.1002 30.1 8.7002 29.5 8.7002Z" fill="#343434"/>
<path d="M28.5 14.3003C27.9 14.3003 27.5 14.7003 27.5 15.3003V25.3003H3.5V10.3003H9.5C10.1 10.3003 10.5 9.90029 10.5 9.30029V7.30029H20.5C21.1 7.30029 21.5 6.90029 21.5 6.30029C21.5 5.70029 21.1 5.30029 20.5 5.30029H9.5C8.9 5.30029 8.5 5.70029 8.5 6.30029V8.30029H2.5C1.9 8.30029 1.5 8.70029 1.5 9.30029V26.3003C1.5 26.9003 1.9 27.3003 2.5 27.3003H28.5C29.1 27.3003 29.5 26.9003 29.5 26.3003V15.3003C29.5 14.8003 29.1 14.3003 28.5 14.3003Z" fill="#343434"/>
</svg>
