<svg width="32" height="32" viewBox="0 0 32 32" fill="none" xmlns="http://www.w3.org/2000/svg">
<path d="M16 28C17.7121 28 19.1 22.6274 19.1 16C19.1 9.37258 17.7121 4 16 4C14.2879 4 12.9 9.37258 12.9 16C12.9 22.6274 14.2879 28 16 28Z" stroke="#343434" stroke-width="2" stroke-miterlimit="10"/>
<path d="M26.8795 22.1567C27.6956 20.7148 23.4867 16.789 17.4785 13.3883C11.4703 9.98764 5.93813 8.39978 5.12197 9.84174C4.3058 11.2837 8.51475 15.2094 14.5229 18.6101C20.5311 22.0108 26.0633 23.5987 26.8795 22.1567Z" stroke="#343434" stroke-width="2" stroke-miterlimit="10"/>
<path d="M17.4785 18.6117C23.4867 15.211 27.6956 11.2852 26.8795 9.84326C26.0633 8.4013 20.5311 9.98917 14.5229 13.3899C8.51475 16.7906 4.3058 20.7163 5.12197 22.1583C5.93813 23.6002 11.4703 22.0124 17.4785 18.6117Z" stroke="#343434" stroke-width="2" stroke-miterlimit="10"/>
</svg>
