<svg width="32" height="32" viewBox="0 0 32 32" fill="none" xmlns="http://www.w3.org/2000/svg">
<path d="M23.2798 16C26.0768 13.9 28.774 11.2 27.7751 9.4C26.6762 7.5 22.9801 8.5 19.6835 9.8C19.0842 6.2 17.9853 3 15.9874 3C13.9895 3 12.8907 6.2 12.2913 9.8C11.2924 9.4 10.3933 9.1 9.59414 8.9C6.69718 8 4.89907 8.2 4.2997 9.3C3.60043 10.5 4.39959 12.1 6.59729 14.2C7.19666 14.8 7.89592 15.4 8.69508 16C5.89802 18.1 3.20085 20.8 4.1998 22.7C4.59938 23.4 5.49844 23.7 6.49739 23.7C8.09571 23.7 10.2934 23 12.1914 22.2C12.8907 25.8 13.9895 29 15.9874 29C17.9853 29 19.0842 25.8 19.6835 22.2C21.6814 23 23.7792 23.7 25.3776 23.7C26.4764 23.7 27.2756 23.4 27.6752 22.7C28.774 20.8 26.0768 18.1 23.2798 16ZM25.9769 10.4C25.877 11.1 24.3786 12.8 21.5816 14.8C20.9822 14.4 20.4827 14.1 19.9832 13.8C19.9832 13.2 19.8833 12.5 19.8833 11.9C23.08 10.5 25.2777 10.1 25.9769 10.4ZM16.9864 17.7C16.6867 17.9 16.2871 18.1 15.9874 18.2C15.6877 18 15.2882 17.8 14.9885 17.7C14.5889 17.5 14.2892 17.3 13.8896 17.1C13.8896 16.7 13.8896 16.4 13.8896 16C13.8896 15.6 13.8896 15.3 13.8896 14.9C14.2892 14.7 14.5889 14.5 14.9885 14.3C15.2882 14.1 15.6877 13.9 15.9874 13.8C16.2871 14 16.6867 14.2 16.9864 14.3C17.386 14.5 17.6856 14.7 18.0852 14.9C18.0852 15.3 18.0852 15.6 18.0852 16C18.0852 16.4 18.0852 16.7 18.0852 17.1C17.6856 17.3 17.386 17.5 16.9864 17.7ZM15.9874 5C16.4869 5.3 17.2861 7.3 17.7855 10.6C17.1862 10.9 16.5868 11.2 16.0873 11.4C15.488 11.1 14.8886 10.8 14.2892 10.5C14.6888 7.3 15.488 5.3 15.9874 5ZM5.99792 10.4C6.59729 10.2 8.79498 10.5 12.0915 11.9C11.9916 12.5 11.9916 13.1 11.9916 13.8C11.4921 14.1 10.9927 14.4 10.4932 14.8C7.59624 12.7 6.19771 11 5.99792 10.4ZM5.99792 21.6C6.09781 20.9 7.59624 19.2 10.3933 17.2C10.8928 17.5 11.3923 17.9 11.9916 18.2C11.9916 18.8 12.0915 19.5 12.0915 20.1C8.89487 21.5 6.69718 21.9 5.99792 21.6ZM15.9874 27C15.488 26.8 14.6888 24.8 14.1893 21.4C14.7887 21.1 15.3881 20.8 15.9874 20.5C16.4869 20.8 17.0863 21.1 17.7855 21.4C17.2861 24.8 16.4869 26.8 15.9874 27ZM19.8833 20.2C19.9832 19.5 19.9832 18.9 19.9832 18.3C20.4827 18 20.9822 17.7 21.5816 17.3C24.3786 19.4 25.877 21.1 25.9769 21.7C25.2777 21.9 23.08 21.5 19.8833 20.2Z" fill="#343434"/>
</svg>
