<svg width="32" height="32" viewBox="0 0 32 32" fill="none" xmlns="http://www.w3.org/2000/svg">
<path d="M16.0001 1C12.8001 1 9.6001 3.2 9.6001 7.4V25.7C9.6001 29.2 12.0001 31 14.4001 31C16.8001 31 19.2001 29.2 19.2001 25.7V12.8C19.2001 8.7 12.9001 8.7 12.9001 12.8V21.4C12.9001 22 13.3001 22.4 13.9001 22.4C14.5001 22.4 14.9001 22 14.9001 21.4V12.8C14.9001 11.7 15.9001 11.6 16.1001 11.6C16.3001 11.6 17.3001 11.7 17.3001 12.8V25.7C17.3001 28 15.9001 29 14.5001 29C13.1001 29 11.7001 28 11.7001 25.7V7.4C11.7001 4.4 13.9001 3 16.1001 3C17.3001 3 18.3001 3.4 19.1001 4.1C20.0001 4.9 20.4001 6 20.4001 7.4V20C20.4001 20.6 20.8001 21 21.4001 21C22.0001 21 22.4001 20.6 22.4001 20V7.4C22.4001 3.2 19.2001 1 16.0001 1Z" fill="black"/>
</svg>
