<svg width="32" height="32" viewBox="0 0 32 32" fill="none" xmlns="http://www.w3.org/2000/svg">
<path d="M16 1C12.8 1 9.59998 3.2 9.59998 7.4V25.7C9.59998 29.2 12 31 14.4 31C16.8 31 19.2 29.2 19.2 25.7V12.8C19.2 8.7 12.9 8.7 12.9 12.8V21.4C12.9 22 13.3 22.4 13.9 22.4C14.5 22.4 14.9 22 14.9 21.4V12.8C14.9 11.7 15.9 11.6 16.1 11.6C16.3 11.6 17.3 11.7 17.3 12.8V25.7C17.3 28 15.9 29 14.5 29C13.1 29 11.7 28 11.7 25.7V7.4C11.7 4.4 13.9 3 16.1 3C17.3 3 18.3 3.4 19.1 4.1C20 4.9 20.4 6 20.4 7.4V20C20.4 20.6 20.8 21 21.4 21C22 21 22.4 20.6 22.4 20V7.4C22.4 3.2 19.2 1 16 1Z" fill="#343434"/>
</svg>
