<svg width="32" height="32" viewBox="0 0 32 32" fill="none" xmlns="http://www.w3.org/2000/svg">
<path d="M6 14H12C12.6 14 13 13.6 13 13V7C13 6.4 12.6 6 12 6H6C5.4 6 5 6.4 5 7V13C5 13.6 5.4 14 6 14ZM7 8H11V12H7V8Z" fill="black"/>
<path d="M6 19H12C12.6 19 13 18.6 13 18C13 17.4 12.6 17 12 17H6C5.4 17 5 17.4 5 18C5 18.6 5.4 19 6 19Z" fill="black"/>
<path d="M12 22H6C5.4 22 5 22.4 5 23C5 23.6 5.4 24 6 24H12C12.6 24 13 23.6 13 23C13 22.4 12.6 22 12 22Z" fill="black"/>
<path d="M20 9H26C26.6 9 27 8.6 27 8C27 7.4 26.6 7 26 7H20C19.4 7 19 7.4 19 8C19 8.6 19.4 9 20 9Z" fill="black"/>
<path d="M26 12H20C19.4 12 19 12.4 19 13C19 13.6 19.4 14 20 14H26C26.6 14 27 13.6 27 13C27 12.4 26.6 12 26 12Z" fill="black"/>
<path d="M26 17H20C19.4 17 19 17.4 19 18C19 18.6 19.4 19 20 19H26C26.6 19 27 18.6 27 18C27 17.4 26.6 17 26 17Z" fill="black"/>
<path d="M26 22H20C19.4 22 19 22.4 19 23C19 23.6 19.4 24 20 24H26C26.6 24 27 23.6 27 23C27 22.4 26.6 22 26 22Z" fill="black"/>
<path d="M30 2H2C1.4 2 1 2.4 1 3V29C1 29.6 1.4 30 2 30H30C30.6 30 31 29.6 31 29V3C31 2.4 30.6 2 30 2ZM17 4H29V28H17V4ZM15 28H3V4H15V28Z" fill="black"/>
</svg>
