<svg width="32" height="32" viewBox="0 0 32 32" fill="none" xmlns="http://www.w3.org/2000/svg">
<path d="M18.5 20.5H13.5C12.9 20.5 12.5 20.9 12.5 21.5C12.5 22.1 12.9 22.5 13.5 22.5H18.5C19.1 22.5 19.5 22.1 19.5 21.5C19.5 20.9 19.1 20.5 18.5 20.5Z" fill="black"/>
<path d="M22.5 6.5H19.5V2.5C19.5 1.9 19.1 1.5 18.5 1.5C18.3 1.5 18.2 1.6 18 1.6L9 6.6C8.7 6.8 8.5 7.1 8.5 7.5V29.5C8.5 30.1 8.9 30.5 9.5 30.5H22.5C23.1 30.5 23.5 30.1 23.5 29.5V7.5C23.5 6.9 23.1 6.5 22.5 6.5ZM10.5 8.5H21.5V28.5H10.5V8.5ZM13.4 6.5L17.5 4.2V6.5H13.4Z" fill="black"/>
<path d="M18.5 11.5H13.5C12.9 11.5 12.5 11.9 12.5 12.5V18.5C12.5 19.1 12.9 19.5 13.5 19.5H18.5C19.1 19.5 19.5 19.1 19.5 18.5V12.5C19.5 11.9 19.1 11.5 18.5 11.5ZM17.5 13.5V17.5H14.5V13.5H17.5Z" fill="black"/>
</svg>
