<svg width="32" height="32" viewBox="0 0 32 32" fill="none" xmlns="http://www.w3.org/2000/svg">
<path d="M6 15.3999H12C12.6 15.3999 13 14.9999 13 14.3999V8.3999C13 7.7999 12.6 7.3999 12 7.3999H6C5.4 7.3999 5 7.7999 5 8.3999V14.3999C5 14.9999 5.4 15.3999 6 15.3999ZM7 9.3999H11V13.3999H7V9.3999Z" fill="#343434"/>
<path d="M6 19.3999H12C12.6 19.3999 13 18.9999 13 18.3999C13 17.7999 12.6 17.3999 12 17.3999H6C5.4 17.3999 5 17.7999 5 18.3999C5 18.9999 5.4 19.3999 6 19.3999Z" fill="#343434"/>
<path d="M12 21.3999H6C5.4 21.3999 5 21.7999 5 22.3999C5 22.9999 5.4 23.3999 6 23.3999H12C12.6 23.3999 13 22.9999 13 22.3999C13 21.7999 12.6 21.3999 12 21.3999Z" fill="#343434"/>
<path d="M20 11.3999H26C26.6 11.3999 27 10.9999 27 10.3999C27 9.7999 26.6 9.3999 26 9.3999H20C19.4 9.3999 19 9.7999 19 10.3999C19 10.9999 19.4 11.3999 20 11.3999Z" fill="#343434"/>
<path d="M26 13.3999H20C19.4 13.3999 19 13.7999 19 14.3999C19 14.9999 19.4 15.3999 20 15.3999H26C26.6 15.3999 27 14.9999 27 14.3999C27 13.7999 26.6 13.3999 26 13.3999Z" fill="#343434"/>
<path d="M26 17.3999H20C19.4 17.3999 19 17.7999 19 18.3999C19 18.9999 19.4 19.3999 20 19.3999H26C26.6 19.3999 27 18.9999 27 18.3999C27 17.7999 26.6 17.3999 26 17.3999Z" fill="#343434"/>
<path d="M26 21.3999H20C19.4 21.3999 19 21.7999 19 22.3999C19 22.9999 19.4 23.3999 20 23.3999H26C26.6 23.3999 27 22.9999 27 22.3999C27 21.7999 26.6 21.3999 26 21.3999Z" fill="#343434"/>
<path d="M30 3.3999H2C1.4 3.3999 1 3.7999 1 4.3999V27.3999C1 27.9999 1.4 28.3999 2 28.3999H30C30.6 28.3999 31 27.9999 31 27.3999V4.3999C31 3.8999 30.6 3.3999 30 3.3999ZM17 5.3999H29V26.3999H17V5.3999ZM15 26.3999H3V5.3999H15V26.3999Z" fill="#343434"/>
</svg>
