<svg width="32" height="32" viewBox="0 0 32 32" fill="none" xmlns="http://www.w3.org/2000/svg">
<path d="M24 4.79986H20.9C20.7 3.89986 20.2 3.19986 19.4 2.59986C18.4 1.89986 17.1 1.69986 15.9 2.09986L7.7 4.89986C7.2 4.99986 7 5.39986 7 5.79986V27.7999C7 28.3999 7.4 28.7999 8 28.7999H24C24.6 28.7999 25 28.3999 25 27.7999V5.79986C25 5.29986 24.5 4.79986 24 4.79986ZM9 6.79986H23V26.7999H9V6.79986ZM16.5 4.09986C17.1 3.89986 17.7 3.99986 18.2 4.39986C18.4 4.49986 18.6 4.69986 18.7 4.89986H14.2L16.5 4.09986Z" fill="black"/>
<path d="M16.9001 13.7999V10.7999C16.9001 10.2999 16.5001 9.8999 16.0001 9.8999C15.5001 9.8999 15.1001 10.2999 15.1001 10.7999V13.7999C15.1001 14.7999 14.2001 14.8999 14.0001 14.8999C13.8001 14.8999 12.9001 14.7999 12.9001 13.7999V10.7999C12.9001 10.2999 12.5001 9.8999 12.0001 9.8999C11.5001 9.8999 11.1001 10.2999 11.1001 10.7999V13.7999C11.1001 15.2999 12.0001 16.1999 13.1001 16.5999V22.7999C13.1001 23.2999 13.5001 23.6999 14.0001 23.6999C14.5001 23.6999 14.9001 23.2999 14.9001 22.7999V16.5999C16.0001 16.2999 16.9001 15.2999 16.9001 13.7999Z" fill="black"/>
<path d="M20.0001 9.8999C19.5001 9.8999 19.1001 10.2999 19.1001 10.7999V15.9999C18.9001 15.8999 18.7001 15.8999 18.5001 15.8999C17.2001 15.8999 16.1001 16.9999 16.1001 18.2999V21.2999C16.1001 22.5999 17.2001 23.6999 18.5001 23.6999C19.8001 23.6999 20.9001 22.5999 20.9001 21.2999V18.7999V18.2999V10.7999C20.9001 10.2999 20.5001 9.8999 20.0001 9.8999ZM19.1001 21.2999C19.1001 21.5999 18.8001 21.8999 18.5001 21.8999C18.2001 21.8999 17.9001 21.5999 17.9001 21.2999V18.2999C17.9001 17.9999 18.2001 17.6999 18.5001 17.6999C18.8001 17.6999 19.1001 17.9999 19.1001 18.2999V18.7999V21.2999Z" fill="black"/>
</svg>
