<svg width="32" height="32" viewBox="0 0 32 32" fill="none" xmlns="http://www.w3.org/2000/svg">
<path d="M24.6999 7.2999C19.9999 2.5999 12.3999 2.5999 7.69994 7.2999C3.99994 11.0999 3.19994 16.8999 5.69994 21.5999C5.59994 21.9999 5.19994 23.0999 4.89994 23.7999C3.99994 25.6999 3.39994 27.0999 4.29994 27.8999C4.59994 28.1999 4.89994 28.2999 5.29994 28.2999C6.09994 28.2999 7.09994 27.7999 8.39994 27.2999C9.09994 26.9999 10.1999 26.4999 10.5999 26.4999C15.1999 28.9999 20.9999 28.0999 24.7999 24.3999C29.3999 19.5999 29.3999 11.9999 24.6999 7.2999ZM23.2999 22.8999C20.1999 25.9999 15.2999 26.7999 11.3999 24.5999C10.5999 24.0999 9.49994 24.5999 7.49994 25.3999C7.09994 25.5999 6.49994 25.8999 5.99994 25.9999C6.19994 25.4999 6.39994 24.8999 6.59994 24.4999C7.39994 22.5999 7.89994 21.4999 7.39994 20.6999C5.19994 16.6999 5.89994 11.7999 8.99994 8.5999C10.9999 6.5999 13.4999 5.6999 16.0999 5.6999C18.6999 5.6999 21.1999 6.6999 23.1999 8.5999C27.1999 12.5999 27.1999 18.9999 23.2999 22.8999Z" fill="#343434"/>
</svg>
