<svg width="32" height="32" viewBox="0 0 32 32" fill="none" xmlns="http://www.w3.org/2000/svg">
<path d="M16 5C9.9 5 5 9.9 5 16C5 22.1 9.9 27 16 27C22.1 27 27 22.1 27 16C27 9.9 22.1 5 16 5ZM16 25C11 25 7 21 7 16C7 11 11 7 16 7C21 7 25 11 25 16C25 21 21 25 16 25Z" fill="black"/>
<path d="M20 12.5002L14.2 18.3002L12.6 16.7002C12.2 16.3002 11.6 16.3002 11.2 16.7002C10.8 17.1002 10.8 17.7002 11.2 18.1002L13.5 20.4002C13.7 20.6002 14 20.7002 14.2 20.7002C14.4 20.7002 14.7 20.6002 14.9 20.4002L21.4 13.9002C21.8 13.5002 21.8 12.9002 21.4 12.5002C21 12.1002 20.3 12.1002 20 12.5002Z" fill="black"/>
</svg>
