<svg width="32" height="32" viewBox="0 0 32 32" fill="none" xmlns="http://www.w3.org/2000/svg">
<path d="M16.1 4C9.49998 4 4.09998 9.4 4.09998 16C4.09998 22.6 9.49998 28 16.1 28C22.7 28 28.1 22.6 28.1 16C28.1 9.4 22.7 4 16.1 4ZM16.1 26C10.6 26 6.09998 21.5 6.09998 16C6.09998 10.5 10.6 6 16.1 6C21.6 6 26.1 10.5 26.1 16C26.1 21.5 21.6 26 16.1 26Z" fill="#343434"/>
<path d="M20.2 12.3L14 18.5L12.2 16.7C11.8 16.3 11.2 16.3 10.8 16.7C10.4 17.1 10.4 17.7 10.8 18.1L13.3 20.6C13.5 20.8 13.8 20.9 14 20.9C14.2 20.9 14.5 20.8 14.7 20.6L21.6 13.7C22 13.3 22 12.7 21.6 12.3C21.2 11.9 20.6 11.9 20.2 12.3Z" fill="#343434"/>
</svg>
