<svg width="32" height="32" viewBox="0 0 32 32" fill="none" xmlns="http://www.w3.org/2000/svg">
<path d="M16 4.2998C9.4 4.2998 4 9.6998 4 16.2998C4 22.8998 9.4 28.2998 16 28.2998C22.6 28.2998 28 22.8998 28 16.2998C28 9.6998 22.7 4.2998 16 4.2998ZM16 26.2998C10.5 26.2998 6 21.7998 6 16.2998C6 10.7998 10.5 6.2998 16 6.2998C21.5 6.2998 26 10.7998 26 16.2998C26 21.7998 21.5 26.2998 16 26.2998Z" fill="#343434"/>
<path d="M20 15.2998H17V9.2998C17 8.6998 16.6 8.2998 16 8.2998C15.4 8.2998 15 8.6998 15 9.2998V16.2998C15 16.8998 15.4 17.2998 16 17.2998H20C20.6 17.2998 21 16.8998 21 16.2998C21 15.6998 20.6 15.2998 20 15.2998Z" fill="#343434"/>
</svg>
