<svg width="32" height="32" viewBox="0 0 32 32" fill="none" xmlns="http://www.w3.org/2000/svg">
<path d="M17.4001 16.0001L26.6001 6.8001C27.0001 6.4001 27.0001 5.8001 26.6001 5.4001C26.2001 5.0001 25.6001 5.0001 25.2001 5.4001L16.0001 14.6001L6.8001 5.4001C6.4001 5.0001 5.8001 5.0001 5.4001 5.4001C5.0001 5.8001 5.0001 6.4001 5.4001 6.8001L14.6001 16.0001L5.4001 25.2001C5.0001 25.6001 5.0001 26.2001 5.4001 26.6001C5.6001 26.8001 5.9001 26.9001 6.1001 26.9001C6.3001 26.9001 6.6001 26.8001 6.8001 26.6001L16.0001 17.4001L25.2001 26.6001C25.4001 26.8001 25.7001 26.9001 25.9001 26.9001C26.1001 26.9001 26.4001 26.8001 26.6001 26.6001C27.0001 26.2001 27.0001 25.6001 26.6001 25.2001L17.4001 16.0001Z" fill="black"/>
</svg>
