<svg width="32" height="32" viewBox="0 0 32 32" fill="none" xmlns="http://www.w3.org/2000/svg">
<path d="M17.4 16.0001L26.6 6.8001C27 6.4001 27 5.8001 26.6 5.4001C26.2 5.0001 25.6 5.0001 25.2 5.4001L16 14.6001L6.79998 5.4001C6.39998 5.0001 5.79998 5.0001 5.39998 5.4001C4.99998 5.8001 4.99998 6.4001 5.39998 6.8001L14.6 16.0001L5.39998 25.2001C4.99998 25.6001 4.99998 26.2001 5.39998 26.6001C5.59998 26.8001 5.89998 26.9001 6.09998 26.9001C6.29998 26.9001 6.59998 26.8001 6.79998 26.6001L16 17.4001L25.2 26.6001C25.4 26.8001 25.7 26.9001 25.9 26.9001C26.1 26.9001 26.4 26.8001 26.6 26.6001C27 26.2001 27 25.6001 26.6 25.2001L17.4 16.0001Z" fill="#343434"/>
</svg>
