<svg width="32" height="32" viewBox="0 0 32 32" fill="none" xmlns="http://www.w3.org/2000/svg">
<path d="M12.6 12.6C11.7 13.5 11.2 14.7 11.2 16C11.2 17.3 11.7 18.5 12.6 19.4C13.5 20.3 14.7 20.8 16 20.8C17.3 20.8 18.5 20.3 19.4 19.4C20.3 18.5 20.8 17.3 20.8 16C20.8 14.7 20.3 13.5 19.4 12.6C17.5 10.8 14.4 10.8 12.6 12.6ZM17.9 18C16.9 19 15 19 14 18C13.5 17.5 13.2 16.8 13.2 16C13.2 15.3 13.5 14.6 14 14C14.5 13.5 15.3 13.2 16 13.2C16.7 13.2 17.4 13.5 18 14C18.5 14.5 18.8 15.2 18.8 16C18.7 16.7 18.4 17.4 17.9 18Z" fill="black"/>
<path d="M29.4999 12.3H25.4999C25.3999 12.2 25.3999 12 25.2999 11.9L28.0999 9.1C28.2999 8.9 28.3999 8.7 28.3999 8.4C28.3999 8.1 28.2999 7.9 28.0999 7.7L24.2999 3.9C23.8999 3.5 23.2999 3.5 22.8999 3.9L19.9999 6.7C19.8999 6.6 19.6999 6.6 19.5999 6.5V2.5C19.5999 1.9 19.1999 1.5 18.5999 1.5H13.1999C12.5999 1.5 12.1999 1.9 12.1999 2.5V6.5C12.0999 6.6 11.8999 6.6 11.7999 6.7L8.9999 3.8C8.5999 3.4 7.9999 3.4 7.5999 3.8L3.7999 7.7C3.3999 8.1 3.3999 8.7 3.7999 9.1L6.5999 11.9C6.4999 12 6.4999 12.2 6.3999 12.3H2.3999C1.7999 12.3 1.3999 12.7 1.3999 13.3V18.7C1.3999 19.3 1.7999 19.7 2.3999 19.7H6.3999C6.4999 19.8 6.4999 20 6.5999 20.1L3.7999 22.9C3.3999 23.3 3.3999 23.9 3.7999 24.3L7.5999 28.1C7.9999 28.5 8.5999 28.5 8.9999 28.1L11.7999 25.3C11.8999 25.4 12.0999 25.4 12.1999 25.5V29.5C12.1999 30.1 12.5999 30.5 13.1999 30.5H18.5999C19.1999 30.5 19.5999 30.1 19.5999 29.5V25.5C19.6999 25.4 19.8999 25.4 19.9999 25.3L22.7999 28.1C23.1999 28.5 23.7999 28.5 24.1999 28.1L27.9999 24.3C28.1999 24.1 28.2999 23.9 28.2999 23.6C28.2999 23.3 28.1999 23.1 27.9999 22.9L25.1999 20.1C25.2999 20 25.2999 19.8 25.3999 19.7H29.3999C29.9999 19.7 30.3999 19.3 30.3999 18.7V13.3C30.4999 12.7 29.9999 12.3 29.4999 12.3ZM28.4999 17.7H24.7999C24.3999 17.7 23.9999 18 23.7999 18.4C23.5999 18.9 23.3999 19.4 23.1999 19.8C22.9999 20.2 23.0999 20.7 23.3999 21L25.9999 23.6L23.5999 26L20.9999 23.4C20.6999 23.1 20.1999 23 19.7999 23.2C19.3999 23.4 18.8999 23.6 18.3999 23.8C17.9999 23.9 17.6999 24.3 17.6999 24.8V28.5H14.2999V24.8C14.2999 24.4 13.9999 24 13.5999 23.8C13.0999 23.6 12.5999 23.5 12.1999 23.2C11.7999 23 11.2999 23.1 10.9999 23.4L8.2999 26L5.8999 23.6L8.4999 21C8.7999 20.7 8.8999 20.2 8.6999 19.8C8.4999 19.4 8.2999 18.9 8.0999 18.4C7.9999 18 7.5999 17.7 7.0999 17.7H3.4999V14.3H7.1999C7.5999 14.3 7.9999 14 8.1999 13.6C8.3999 13.1 8.5999 12.6 8.7999 12.2C8.9999 11.8 8.8999 11.3 8.5999 11L5.8999 8.4L8.2999 6L10.9999 8.6C11.2999 8.9 11.7999 9 12.1999 8.8C12.5999 8.6 13.0999 8.4 13.5999 8.2C13.9999 8.1 14.2999 7.7 14.2999 7.2V3.5H17.6999V7.2C17.6999 7.6 17.9999 8 18.3999 8.2C18.8999 8.4 19.3999 8.6 19.7999 8.8C20.1999 9 20.5999 8.9 20.9999 8.6L23.5999 6L25.9999 8.4L23.3999 11C23.0999 11.3 22.9999 11.8 23.1999 12.2C23.3999 12.6 23.5999 13.1 23.7999 13.6C23.8999 14 24.2999 14.3 24.7999 14.3H28.4999V17.7Z" fill="black"/>
</svg>
