<svg width="32" height="32" viewBox="0 0 32 32" fill="none" xmlns="http://www.w3.org/2000/svg">
<path d="M25.9912 19.8C25.386 19.8 24.9825 20.2 24.9825 20.8V24.3C24.9825 25.3 24.2763 26 23.2675 26H7.73246C6.72368 26 6.01754 25.3 6.01754 24.3V7.7C6.01754 6.7 6.72368 6 7.73246 6H10.4561C11.0614 6 11.4649 5.6 11.4649 5C11.4649 4.4 11.0614 4 10.4561 4H7.73246C5.71491 4 4 5.7 4 7.7V24.3C4 26.3 5.71491 28 7.73246 28H23.2675C25.2851 28 27 26.3 27 24.3V20.8C27 20.2 26.5965 19.8 25.9912 19.8Z" fill="#343434"/>
<path d="M13.4825 12.2H18.7281V17.4C18.7281 18 19.1316 18.4 19.7369 18.4C20.3421 18.4 20.7456 18 20.7456 17.4V12.2H25.9912C26.5965 12.2 27 11.8 27 11.2C27 10.6 26.5965 10.2 25.9912 10.2H20.7456V5C20.7456 4.4 20.3421 4 19.7369 4C19.1316 4 18.7281 4.4 18.7281 5V10.2H13.4825C12.8772 10.2 12.4737 10.6 12.4737 11.2C12.4737 11.8 12.8772 12.2 13.4825 12.2Z" fill="#343434"/>
</svg>
