<svg width="32" height="32" viewBox="0 0 32 32" fill="none" xmlns="http://www.w3.org/2000/svg">
<path d="M23.9 5.5H21.7C20.3 5.5 20.3 7.7 21.7 7.7H23.9C25.7 7.7 27.1 9.2 27.1 11V24C27.1 25.8 25.6 27.2 23.9 27.2H10.9C9.1 27.2 7.7 25.7 7.7 24V21.8C7.7 20.4 5.5 20.4 5.5 21.8V24C5.5 27 7.9 29.4 10.9 29.4H23.9C26.9 29.4 29.3 27 29.3 24V11C29.3 8 26.9 5.5 23.9 5.5Z" fill="black"/>
<path d="M11.5 19.6999C11.5 20.2999 12 20.6999 12.5 20.6999C13 20.6999 13.5 20.1999 13.5 19.6999V13.7999H19.4C20 13.7999 20.4 13.2999 20.4 12.7999C20.4 12.1999 19.9 11.7999 19.4 11.7999H13.5V5.8999C13.5 5.2999 13 4.8999 12.5 4.8999C12 4.8999 11.5 5.3999 11.5 5.8999V11.7999H5.59998C4.99998 11.7999 4.59998 12.2999 4.59998 12.7999C4.59998 13.3999 5.09998 13.7999 5.59998 13.7999H11.5V19.6999Z" fill="black"/>
</svg>
