<svg width="32" height="32" viewBox="0 0 32 32" fill="none" xmlns="http://www.w3.org/2000/svg">
<path d="M9.6 16.6C9.6 17.1 10 17.5 10.5 17.5C11 17.5 11.4 17.1 11.4 16.6V11.4H16.6C17.1 11.4 17.5 11 17.5 10.5C17.5 10 17.1 9.6 16.6 9.6H11.4V4.4C11.4 3.9 11 3.5 10.5 3.5C10 3.5 9.6 3.9 9.6 4.4V9.6H4.4C3.9 9.6 3.5 10 3.5 10.5C3.5 11 3.9 11.4 4.4 11.4H9.6V16.6Z" fill="black"/>
<path d="M21.5 4.5H16.5C15.1 4.5 15.1 6.5 16.5 6.5H21.5C23.2 6.5 24.5 7.8 24.5 9.5V21.5C24.5 23.2 23.2 24.5 21.5 24.5H9.5C7.8 24.5 6.5 23.2 6.5 21.5V16.5C6.5 15.2 4.5 15.2 4.5 16.5V21.5C4.5 24.3 6.7 26.5 9.5 26.5H21.5C24.3 26.5 26.5 24.3 26.5 21.5V9.5C26.5 6.7 24.3 4.5 21.5 4.5Z" fill="black"/>
</svg>
