<svg width="32" height="32" viewBox="0 0 32 32" fill="none" xmlns="http://www.w3.org/2000/svg">
<path d="M11.2 20.5002L8.8 22.9002C8.4 23.3002 8.4 23.9002 8.8 24.3002C9 24.5002 9.3 24.6002 9.5 24.6002C9.7 24.6002 10 24.5002 10.2 24.3002L12.6 21.9002C13 21.5002 13 20.9002 12.6 20.5002C12.2 20.1002 11.6 20.1002 11.2 20.5002Z" fill="black"/>
<path d="M5.50005 26.1999L3.10005 28.5999C2.70005 28.9999 2.70005 29.5999 3.10005 29.9999C3.30005 30.1999 3.60005 30.2999 3.80005 30.2999C4.00005 30.2999 4.30005 30.1999 4.50005 29.9999L7.00005 27.5999C7.40005 27.1999 7.40005 26.5999 7.00005 26.1999C6.60005 25.7999 5.90005 25.7999 5.50005 26.1999Z" fill="black"/>
<path d="M22.5 9.1999L20.1 11.5999C19.7 11.9999 19.7 12.5999 20.1 12.9999C20.3 13.1999 20.6 13.2999 20.8 13.2999C21 13.2999 21.3 13.1999 21.5 12.9999L23.9 10.5999C24.3 10.1999 24.3 9.5999 23.9 9.1999C23.5 8.7999 22.9 8.7999 22.5 9.1999Z" fill="black"/>
<path d="M29.6 3.49971C29.2 3.09971 28.6 3.09971 28.2 3.49971L25.8 5.89971C25.4 6.29971 25.4 6.89971 25.8 7.29971C26 7.49971 26.3 7.59971 26.5 7.59971C26.7 7.59971 27 7.49971 27.2 7.29971L29.6 4.99971C30 4.59971 30 3.89971 29.6 3.49971Z" fill="black"/>
<path d="M17.0001 14.7L21.2001 3.09995C21.4001 2.59995 21.1001 1.99995 20.6001 1.79995C20.1001 1.59995 19.5001 1.89995 19.3001 2.39995L14.1001 16.7L10.0001 18.2C10.1001 17.5 10.1001 16.8 9.80006 16.1C9.00006 14 6.70006 13 4.70006 13.7C3.70006 14.1 2.90006 14.8 2.40006 15.8C1.90006 16.8 2.00006 17.9 2.40006 18.9C2.80006 19.9 3.50006 20.7 4.50006 21.2C5.00006 21.5 5.60006 21.6 6.20006 21.6C6.70006 21.6 7.10006 21.5 7.60006 21.4L14.7001 18.7999C14.9001 18.9 15.1001 19 15.3001 19C15.6001 19 15.8001 18.9 16.0001 18.7L18.4001 16.3C18.8001 15.9 18.8001 15.3 18.4001 14.9C17.9001 14.5 17.4001 14.5 17.0001 14.7ZM4.30006 18.2C4.10006 17.7 4.10006 17.2 4.40006 16.7C4.60006 16.2 5.00006 15.8 5.50006 15.7C5.70006 15.6 6.00006 15.6 6.20006 15.6C7.00006 15.5 7.70006 16 8.00006 16.8C8.20006 17.3 8.20006 17.7999 7.90006 18.2999C7.70006 18.7999 7.30006 19.1999 6.80006 19.2999C5.80006 19.7999 4.60006 19.2 4.30006 18.2Z" fill="black"/>
</svg>
