<svg width="32" height="32" viewBox="0 0 32 32" fill="none" xmlns="http://www.w3.org/2000/svg">
<path d="M26.7999 6.0002C26.6999 5.9002 26.7 5.8002 26.6 5.7002L22.4 1.5002C22.3 1.4002 22.2 1.3002 22.1 1.3002C22 1.2002 21.8 1.2002 21.7 1.2002H6.19995C5.59995 1.2002 5.19995 1.6002 5.19995 2.2002V30.2002C5.19995 30.8002 5.59995 31.2002 6.19995 31.2002H25.7999C26.4 31.2002 26.7999 30.8002 26.7999 30.2002V6.4002C26.7999 6.3002 26.7999 6.1002 26.7999 6.0002ZM20.6 6.4002C20.6 7.0002 21 7.4002 21.6 7.4002H24.7999V29.2002H7.19995V3.2002H20.6V6.4002Z" fill="#343434"/>
<path d="M11.7999 14H20.1999C20.7999 14 21.1999 13.6 21.1999 13C21.1999 12.4 20.7999 12 20.1999 12H11.7999C11.1999 12 10.7999 12.4 10.7999 13C10.7999 13.6 11.2999 14 11.7999 14Z" fill="#343434"/>
<path d="M11.7999 18.6001H20.1999C20.7999 18.6001 21.1999 18.2001 21.1999 17.6001C21.1999 17.0001 20.7999 16.6001 20.1999 16.6001H11.7999C11.1999 16.6001 10.7999 17.0001 10.7999 17.6001C10.7999 18.2001 11.2999 18.6001 11.7999 18.6001Z" fill="#343434"/>
<path d="M17.7999 21.2002H11.7999C11.1999 21.2002 10.7999 21.6002 10.7999 22.2002C10.7999 22.8002 11.1999 23.2002 11.7999 23.2002H17.7999C18.3999 23.2002 18.7999 22.8002 18.7999 22.2002C18.7999 21.6002 18.3999 21.2002 17.7999 21.2002Z" fill="#343434"/>
</svg>
