<svg width="32" height="32" viewBox="0 0 32 32" fill="none" xmlns="http://www.w3.org/2000/svg">
<path d="M23.5 26.1V5.6C23.5 5.5 23.5 5.3 23.4 5.2C23.3 5.1 23.3 5 23.2 4.9L19.6 1.3C19.5 1.2 19.4 1.1 19.3 1.1C19.1 1 19 1 18.8 1H5.59998C4.99998 1 4.59998 1.4 4.59998 2V26.1C4.59998 26.7 4.99998 27.1 5.59998 27.1H22.5C23 27.1 23.5 26.7 23.5 26.1ZM21.5 25.1H6.59998V3H17.9V5.6C17.9 6.2 18.3 6.6 18.9 6.6H21.5V25.1Z" fill="#343434"/>
<path d="M26.4 12.6001C25.8 12.6001 25.4 13.0001 25.4 13.6001V29.0001H9C8.4 29.0001 8 29.4001 8 30.0001C8 30.6001 8.4 31.0001 9 31.0001H26.4C27 31.0001 27.4 30.6001 27.4 30.0001V13.6001C27.4 13.0001 27 12.6001 26.4 12.6001Z" fill="#343434"/>
</svg>
