<svg width="32" height="32" viewBox="0 0 32 32" fill="none" xmlns="http://www.w3.org/2000/svg">
<path d="M23.5001 26.1V5.6C23.5001 5.5 23.5001 5.3 23.4001 5.2C23.3001 5.1 23.3001 5 23.2001 4.9L19.6001 1.3C19.5001 1.2 19.4001 1.1 19.3001 1.1C19.1001 1 19.0001 1 18.8001 1H5.6001C5.0001 1 4.6001 1.4 4.6001 2V26.1C4.6001 26.7 5.0001 27.1 5.6001 27.1H22.5001C23.0001 27.1 23.5001 26.7 23.5001 26.1ZM21.5001 25.1H6.6001V3H17.9001V5.6C17.9001 6.2 18.3001 6.6 18.9001 6.6H21.5001V25.1Z" fill="black"/>
<path d="M26.4 12.6001C25.8 12.6001 25.4 13.0001 25.4 13.6001V29.0001H9C8.4 29.0001 8 29.4001 8 30.0001C8 30.6001 8.4 31.0001 9 31.0001H26.4C27 31.0001 27.4 30.6001 27.4 30.0001V13.6001C27.4 13.0001 27 12.6001 26.4 12.6001Z" fill="black"/>
</svg>
