<svg width="32" height="32" viewBox="0 0 32 32" fill="none" xmlns="http://www.w3.org/2000/svg">
<path d="M23.6 26.1V5.6C23.6 5.5 23.6 5.3 23.5 5.2C23.4 5.1 23.4 5 23.2999 4.9L19.7 1.3C19.6 1.2 19.5 1.1 19.4 1.1C19.2 1 19.1 1 18.9 1H5.69995C5.09995 1 4.69995 1.4 4.69995 2V26.1C4.69995 26.7 5.09995 27.1 5.69995 27.1H22.6C23.1 27.1 23.6 26.7 23.6 26.1ZM21.6 25.1H6.69995V3H18V5.6C18 6.2 18.4 6.6 19 6.6H21.6V25.1Z" fill="black"/>
<path d="M18.1 9.3999H10.2C9.59995 9.3999 9.19995 9.7999 9.19995 10.3999C9.19995 10.9999 9.59995 11.3999 10.2 11.3999H18.1C18.7 11.3999 19.1 10.9999 19.1 10.3999C19.1 9.7999 18.6 9.3999 18.1 9.3999Z" fill="black"/>
<path d="M18.1 14H10.2C9.59995 14 9.19995 14.4 9.19995 15C9.19995 15.6 9.59995 16 10.2 16H18.1C18.7 16 19.1 15.6 19.1 15C19.1 14.4 18.6 14 18.1 14Z" fill="black"/>
<path d="M13.8999 18.6001H10.0999C9.49985 18.6001 9.09985 19.0001 9.09985 19.6001C9.09985 20.2001 9.49985 20.6001 10.0999 20.6001H13.8999C14.4999 20.6001 14.8999 20.2001 14.8999 19.6001C14.8999 19.0001 14.4999 18.6001 13.8999 18.6001Z" fill="black"/>
<path d="M26.2999 12.6001C25.6999 12.6001 25.2999 13.0001 25.2999 13.6001V29.0001H8.8999C8.2999 29.0001 7.8999 29.4001 7.8999 30.0001C7.8999 30.6001 8.2999 31.0001 8.8999 31.0001H26.2999C26.8999 31.0001 27.2999 30.6001 27.2999 30.0001V13.6001C27.2999 13.0001 26.8999 12.6001 26.2999 12.6001Z" fill="black"/>
</svg>
