<svg width="32" height="32" viewBox="0 0 32 32" fill="none" xmlns="http://www.w3.org/2000/svg">
<path d="M15.3 25.7026C15.5 25.9009 15.8 26 16 26C16.2 26 16.5 25.9009 16.7 25.7026L24.7 17.7716C25.1 17.2759 25.1 16.681 24.7 16.2845C24.3 15.8879 23.7 15.8879 23.3 16.2845L17 22.5302V3.99138C17 3.39655 16.6 3 16 3C15.4 3 15 3.39655 15 3.99138V22.6293L8.7 16.3836C8.3 15.9871 7.7 15.9871 7.3 16.3836C6.9 16.7802 6.9 17.375 7.3 17.7716L15.3 25.7026Z" fill="#343434"/>
<path d="M25 27.9854H7C6.4 27.9854 6 28.3854 6 28.9854C6 29.5854 6.4 29.9854 7 29.9854H25C25.6 29.9854 26 29.5854 26 28.9854C26 28.3854 25.6 27.9854 25 27.9854Z" fill="#343434"/>
</svg>
