<svg width="32" height="32" viewBox="0 0 32 32" fill="none" xmlns="http://www.w3.org/2000/svg">
<path d="M23 25.5H9C8.4 25.5 8 25.9 8 26.5C8 27.1 8.4 27.5 9 27.5H23C23.6 27.5 24 27.1 24 26.5C24 25.9 23.6 25.5 23 25.5Z" fill="#343434"/>
<path d="M15.3 23.7C15.4 23.8 15.5 23.9 15.6 23.9C15.7 24 15.9 24 16 24C16.1 24 16.3 24 16.4 23.9C16.5 23.8 16.6 23.8 16.7 23.7L21.9 18.5C22.3 18.1 22.3 17.5 21.9 17.1C21.5 16.7 20.9 16.7 20.5 17.1L17 20.6V5.5C17 4.9 16.6 4.5 16 4.5C15.4 4.5 15 4.9 15 5.5V20.6L11.5 17.1C11.1 16.7 10.5 16.7 10.1 17.1C9.69999 17.5 9.69999 18.1 10.1 18.5L15.3 23.7Z" fill="#343434"/>
</svg>
