<svg width="32" height="32" viewBox="0 0 32 32" fill="none" xmlns="http://www.w3.org/2000/svg">
<path d="M11 19C12.6569 19 14 17.6569 14 16C14 14.3431 12.6569 13 11 13C9.34315 13 8 14.3431 8 16C8 17.6569 9.34315 19 11 19Z" fill="#343434"/>
<path d="M11 9C12.6569 9 14 7.65685 14 6C14 4.34315 12.6569 3 11 3C9.34315 3 8 4.34315 8 6C8 7.65685 9.34315 9 11 9Z" fill="#343434"/>
<path d="M11 29C12.6569 29 14 27.6569 14 26C14 24.3431 12.6569 23 11 23C9.34315 23 8 24.3431 8 26C8 27.6569 9.34315 29 11 29Z" fill="#343434"/>
<path d="M21 19C22.6569 19 24 17.6569 24 16C24 14.3431 22.6569 13 21 13C19.3431 13 18 14.3431 18 16C18 17.6569 19.3431 19 21 19Z" fill="#343434"/>
<path d="M21 9C22.6569 9 24 7.65685 24 6C24 4.34315 22.6569 3 21 3C19.3431 3 18 4.34315 18 6C18 7.65685 19.3431 9 21 9Z" fill="#343434"/>
<path d="M21 29C22.6569 29 24 27.6569 24 26C24 24.3431 22.6569 23 21 23C19.3431 23 18 24.3431 18 26C18 27.6569 19.3431 29 21 29Z" fill="#343434"/>
</svg>
