<svg width="32" height="32" viewBox="0 0 32 32" fill="none" xmlns="http://www.w3.org/2000/svg">
<path d="M23.9 5.5H21.7C20.3 5.5 20.3 7.7 21.7 7.7H23.9C25.7 7.7 27.1 9.2 27.1 11V24C27.1 25.8 25.6 27.2 23.9 27.2H10.9C9.1 27.2 7.7 25.7 7.7 24V21.8C7.7 20.4 5.5 20.4 5.5 21.8V24C5.5 27 7.9 29.4 10.9 29.4H23.9C26.9 29.4 29.3 27 29.3 24V11C29.3 8 26.9 5.5 23.9 5.5Z" fill="black"/>
<path d="M7.50005 17.9C7.50005 17.9 7.60005 17.8 7.50005 17.9C7.60005 17.9 7.70005 17.8 7.70005 17.8L7.80005 17.7C7.80005 17.7 7.80005 17.7 7.90005 17.7L16.5 9.09997L18.5 7.09997C19.2 6.39997 19.5 5.49997 19.2001 4.59997C19 3.69997 18.2 2.89997 17.3 2.69997C16.4 2.49997 15.5 2.69997 14.8 3.39997L4.20005 14C4.20005 14 4.20005 14 4.20005 14.1L4.10005 14.2C4.10005 14.2 4.10005 14.3 4.00005 14.3C4.00005 14.3 4.00005 14.3 4.00005 14.4L3.40005 17.5L2.90005 18C2.60005 18.3 2.60005 18.8 2.90005 19.1C3.00005 19.2 3.20005 19.3 3.40005 19.3C3.60005 19.3 3.80005 19.1 4.00005 19L4.50005 18.5L7.50005 17.9ZM13.8 6.49997C14.4 5.89997 15 6.09997 15.4 6.49997C15.8 6.89997 16 7.49997 15.4 8.09997L8.50005 15C8.40005 14.6 8.20005 14.3 7.90005 14C7.60005 13.7 7.30005 13.5 6.90005 13.4L13.8 6.49997ZM5.40005 14.9C6.00005 14.5 6.50005 14.7 6.90005 15C7.10005 15.2 7.20005 15.5 7.30005 15.7C7.30005 15.9 7.20005 16.2 7.00005 16.4L5.00005 16.8L5.40005 14.9ZM16.8 4.19997C17.2 4.29997 17.6 4.69997 17.7 5.09997C17.8 5.49997 17.7 5.79997 17.4 6.09997L17.1 6.39997C17 5.99997 16.8 5.69997 16.5 5.39997C16.2 5.09997 15.9 4.89997 15.5 4.79997L15.8 4.49997C16.1 4.19997 16.5 4.09997 16.8 4.19997Z" fill="black"/>
</svg>
