<svg width="32" height="32" viewBox="0 0 32 32" fill="none" xmlns="http://www.w3.org/2000/svg">
<path d="M12.9585 19.2999C13.2604 19.2999 13.4618 19.1999 13.6631 18.9999L13.8644 18.7999L16.4814 18.2999C16.6828 18.2999 16.8841 18.1999 16.9847 17.9999L26.2451 8.7999C27.2517 7.7999 27.2517 6.1999 26.2451 5.0999C25.1379 3.9999 23.6281 3.9999 22.5208 5.0999L13.2604 14.2999C13.1598 14.3999 13.0591 14.5999 12.9585 14.7999L12.4552 17.3999L12.2539 17.5999C12.0526 17.7999 11.9519 18.0999 11.9519 18.2999C11.9519 18.4999 12.0526 18.7999 12.2539 18.9999C12.4552 19.1999 12.6565 19.2999 12.9585 19.2999ZM23.93 6.4999C24.3326 6.0999 24.6346 6.3999 24.8359 6.4999C25.0372 6.6999 25.2386 6.9999 24.8359 7.3999L24.3326 7.8999L23.4267 6.9999L23.93 6.4999ZM14.8709 15.4999L22.0175 8.3999L22.9235 9.2999L15.7768 16.3999L14.6696 16.5999L14.8709 15.4999Z" fill="#343434"/>
<path d="M25.9431 19.8C25.3392 19.8 24.9365 20.2 24.9365 20.8V24.3C24.9365 25.3 24.2319 26 23.2254 26H7.72429C6.71772 26 6.01313 25.3 6.01313 24.3V7.7C6.01313 6.7 6.71772 6 7.72429 6H10.442C11.046 6 11.4486 5.6 11.4486 5C11.4486 4.4 11.046 4 10.442 4H7.72429C5.71116 4 4 5.7 4 7.7V24.3C4 26.3 5.71116 28 7.72429 28H23.2254C25.2385 28 26.9497 26.3 26.9497 24.3V20.8C26.9497 20.2 26.547 19.8 25.9431 19.8Z" fill="#343434"/>
</svg>
