<svg width="32" height="32" viewBox="0 0 32 32" fill="none" xmlns="http://www.w3.org/2000/svg">
<path d="M22.3 5.3999H20.3C19 5.3999 19 7.3999 20.3 7.3999H22.3C24 7.3999 25.3 8.6999 25.3 10.3999V22.3999C25.3 24.0999 24 25.3999 22.3 25.3999H10.3C8.60005 25.3999 7.30005 24.0999 7.30005 22.3999V20.3999C7.30005 19.0999 5.30005 19.0999 5.30005 20.3999V22.3999C5.30005 25.1999 7.50005 27.3999 10.3 27.3999H22.3C25.1 27.3999 27.3 25.1999 27.3 22.3999V10.3999C27.3 7.5999 25.1 5.3999 22.3 5.3999Z" fill="black"/>
<path d="M7.20005 16.8C7.20005 16.8 7.30005 16.8 7.20005 16.8C7.30005 16.8 7.40005 16.7 7.40005 16.7L7.50005 16.6C7.50005 16.6 7.50005 16.6 7.60005 16.6L17.3 6.89997C18 6.19997 18.2 5.39997 18 4.49997C17.8 3.59997 17.1 2.89997 16.2 2.69997C15.4 2.49997 14.5 2.69997 13.8 3.39997L4.10005 13.1C4.10005 13.1 4.10005 13.1 4.10005 13.2L4.00005 13.3C4.00005 13.3 4.00005 13.4 3.90005 13.4C3.90005 13.4 3.90005 13.4 3.90005 13.5L3.30005 16.3L2.90005 16.7C2.60005 17 2.60005 17.5 2.90005 17.8C3.00005 18 3.20005 18 3.40005 18C3.60005 18 3.80005 17.9 3.90005 17.8L4.30005 17.4L7.20005 16.8ZM13.1 6.29997C13.3 6.09997 13.6 5.99997 13.8 5.99997C14 5.99997 14.3 6.09997 14.5 6.29997C14.7 6.49997 14.8 6.69997 14.8 6.99997C14.8 7.29997 14.7 7.49997 14.5 7.69997L8.20005 14C8.10005 13.7 7.90005 13.4 7.60005 13.2C7.40005 13 7.10005 12.8 6.80005 12.6L13.1 6.29997ZM5.30005 14.1C5.90005 13.7 6.40005 14.1 6.50005 14.2C6.70005 14.4 6.80005 14.6 6.80005 14.9C6.80005 15.1 6.70005 15.3 6.60005 15.5L5.00005 15.7L5.30005 14.1ZM15.8 4.19997C16.2 4.29997 16.5 4.59997 16.6 4.99997C16.7 5.29997 16.6 5.59997 16.3 5.89997L16.1 5.99997C16 5.69997 15.8 5.39997 15.5 5.19997C15.3 4.99997 15 4.79997 14.7 4.59997L14.9 4.39997C15.2 4.19997 15.5 4.09997 15.8 4.19997Z" fill="black"/>
</svg>
