<svg width="32" height="32" viewBox="0 0 32 32" fill="none" xmlns="http://www.w3.org/2000/svg">
<path d="M26.9 5.09673C25.6 3.80197 23.2 3.40358 21.3 5.29592L4.4 22.2274C4.2 22.4266 4.1 22.6258 4.1 22.9246V26.5101L3.3 27.3069C2.9 27.7052 2.9 28.3028 3.3 28.7012C3.7 29.0996 4.3 29.0996 4.7 28.7012L5.5 27.8048H9.1C9.4 27.8048 9.6 27.7052 9.8 27.506L26.7 10.6742C28.6 8.78182 28.2 6.39149 26.9 5.09673ZM8.6 25.9125H6V23.323L20.9 8.58262L23.5 11.1721L8.6 25.9125ZM24.8 9.67819L22.2 7.08867L22.6 6.69028C23.8 5.69431 24.9 5.8935 25.5 6.49109C26.1 7.08867 26.3 8.28383 25.3 9.2798L24.8 9.67819Z" fill="#343434"/>
</svg>
