<svg width="32" height="32" viewBox="0 0 32 32" fill="none" xmlns="http://www.w3.org/2000/svg">
<path d="M30.4 4.8002C30 3.3002 28.7 2.0002 27.2 1.6002C25.7 1.2002 24.2 1.6002 23.1 2.8002L4.2 21.7002C4.2 21.7002 4.2 21.7002 4.2 21.8002C4.1 21.8002 4 21.9002 4 22.0002C4 22.1002 3.9 22.1002 3.9 22.2002V22.3002L2.8 27.9002L1.8 28.9002C1.4 29.3002 1.4 29.9002 1.8 30.3002C2 30.5002 2.3 30.6002 2.5 30.6002C2.7 30.6002 3 30.5002 3.2 30.3002L4.2 29.3002L9.8 28.2002H9.9C10 28.2002 10 28.2002 10.1 28.1002C10.2 28.1002 10.2 28.0002 10.3 28.0002C10.3 28.0002 10.4 28.0002 10.4 27.9002L29.2 9.0002C30.3 7.8002 30.8 6.3002 30.4 4.8002ZM26.6 3.6002C27.4 3.8002 28.2 4.5002 28.4 5.4002C28.5 5.9002 28.5 6.8002 27.7 7.6002L26.8 8.5002V8.4002C26.4 6.9002 25.1 5.6002 23.6 5.2002H23.5L24.4 4.3002C25.3 3.4002 26.1 3.4002 26.6 3.6002ZM5.8 22.9002C6.6 22.3002 7.3 22.3002 7.8 22.4002C8.6 22.6002 9.4 23.3002 9.6 24.2002C9.7 24.7002 9.7 25.4002 9.1 26.2002L5 27.0002L5.8 22.9002ZM11.5 23.7002C11.1 22.2002 9.8 20.9002 8.3 20.5002H8.2L20.9 7.8002C21.7 7.0002 22.6 7.0002 23.1 7.1002C23.9 7.3002 24.7 8.0002 24.9 8.9002C25 9.4002 25 10.3002 24.2 11.1002L11.5 23.7002C11.5 23.7002 11.5 23.8002 11.5 23.7002Z" fill="black"/>
</svg>
