<svg width="32" height="32" viewBox="0 0 32 32" fill="none" xmlns="http://www.w3.org/2000/svg">
<path d="M28.5 3.50008C27 2.00008 24.6 1.60008 22.6 3.50008L19.2999 6.80009L4.79995 21.4001C4.79995 21.4001 4.79995 21.4001 4.79995 21.5001C4.79995 21.6001 4.69995 21.6001 4.69995 21.7001C4.69995 21.8001 4.59995 21.8001 4.59995 21.9001V22.0001L3.49995 27.3001L2.49995 28.0001C2.09995 28.4001 2.09995 29.0001 2.49995 29.4001C2.69995 29.6001 2.99995 29.7001 3.19995 29.7001C3.39995 29.7001 3.69995 29.6001 3.89995 29.4001L4.79995 28.5001L10.1 27.4001H10.2C10.3 27.4001 10.3 27.4001 10.4 27.3001C10.5 27.3001 10.5 27.2001 10.6 27.2001H10.7L28.5 9.40008C30.4 7.50008 29.9 5.00008 28.5 3.50008ZM27.1 4.90008C27.5 5.30009 27.7999 5.80009 27.7999 6.30009C27.7999 7.00008 27.5 7.50008 27 8.00008L26.2 8.80009C26 8.10009 25.6 7.40008 25.1 6.90008C24.6 6.40008 23.9 6.00009 23.2 5.80009L24 5.00008C25.1 3.90008 26.3 4.20008 27.1 4.90008ZM11.8 23.3001C11.6 22.6001 11.2 21.9001 10.7 21.4001C10.2 20.9001 9.49995 20.5001 8.79995 20.3001L20.7 8.30009C21.8 7.20009 23 7.50008 23.7999 8.30009C24.5999 9.10009 24.7999 10.3001 23.7999 11.4001L11.8 23.3001ZM6.39995 22.6001C7.39995 21.8001 8.49995 22.0001 9.29995 22.7001C9.99995 23.4001 10.3 24.5001 9.39995 25.6001L5.59995 26.4001L6.39995 22.6001Z" fill="black"/>
</svg>
