<svg width="32" height="32" viewBox="0 0 32 32" fill="none" xmlns="http://www.w3.org/2000/svg">
<path d="M4.4 16.9999H17.4C18 16.9999 18.4 16.5999 18.4 15.9999C18.4 15.3999 18 14.9999 17.4 14.9999H4.4L8.3 11.0999C8.7 10.6999 8.7 10.0999 8.3 9.6999C7.9 9.2999 7.3 9.2999 6.9 9.6999L1.3 15.2999C0.9 15.6999 0.9 16.2999 1.3 16.6999L6.9 22.2999C7.1 22.4999 7.4 22.5999 7.6 22.5999C7.8 22.5999 8.1 22.4999 8.3 22.2999C8.7 21.8999 8.7 21.2999 8.3 20.8999L4.4 16.9999Z" fill="black"/>
<path d="M30 1H13.2C12.6 1 12.2 1.4 12.2 2V9C12.2 9.6 12.6 10 13.2 10C13.8 10 14.2 9.6 14.2 9V3H29V29H14.2V23C14.2 22.4 13.8 22 13.2 22C12.6 22 12.2 22.4 12.2 23V30C12.2 30.6 12.6 31 13.2 31H30C30.6 31 31 30.6 31 30V2C31 1.4 30.6 1 30 1Z" fill="black"/>
</svg>
