<svg width="32" height="32" viewBox="0 0 32 32" fill="none" xmlns="http://www.w3.org/2000/svg">
<path d="M22.9597 4H14.8952C12.0726 4 9.85486 6.2 9.85486 9C9.85486 9.6 10.2581 10 10.8629 10C11.4678 10 11.871 9.6 11.871 9C11.871 7.3 13.1815 6 14.8952 6H22.9597C24.6734 6 25.9839 7.3 25.9839 9V23C25.9839 24.7 24.6734 26 22.9597 26H14.8952C13.1815 26 11.871 24.7 11.871 23C11.871 22.4 11.4678 22 10.8629 22C10.2581 22 9.85486 22.4 9.85486 23C9.85486 25.8 12.0726 28 14.8952 28H22.9597C25.7823 28 28 25.8 28 23V9C28 6.2 25.7823 4 22.9597 4Z" fill="#343434"/>
<path d="M6.42742 16.9998H15.7016C16.3065 16.9998 16.7097 16.5998 16.7097 15.9998C16.7097 15.3998 16.3065 14.9998 15.7016 14.9998H6.42742L8.94758 12.4998C9.35081 12.0998 9.35081 11.4998 8.94758 11.0998C8.54436 10.6998 7.93952 10.6998 7.53629 11.0998L3.30242 15.2998C2.89919 15.6998 2.89919 16.2998 3.30242 16.6998L7.53629 20.8998C7.93952 21.2998 8.54436 21.2998 8.94758 20.8998C9.35081 20.4998 9.35081 19.8998 8.94758 19.4998L6.42742 16.9998Z" fill="#343434"/>
</svg>
