<svg width="32" height="32" viewBox="0 0 32 32" fill="none" xmlns="http://www.w3.org/2000/svg">
<path d="M14 19.3999L19.5 13.8999L22.1 11.2999L23.6 9.7999L26.8 6.5999C27.2 6.1999 27.2 5.5999 26.8 5.1999C26.4 4.7999 25.8 4.7999 25.4 5.1999L21.6 8.9999C14.8 6.5999 7.9 8.5999 1.3 15.2999C0.9 15.6999 0.9 16.2999 1.3 16.6999C3.7 19.0999 6.1 20.8999 8.5 22.0999L5.3 25.2999C4.9 25.6999 4.9 26.2999 5.3 26.6999C5.5 26.8999 5.7 26.9999 6 26.9999C6.3 26.9999 6.5 26.8999 6.7 26.6999L10.4 22.9999L12 21.3999L14 19.3999ZM3.5 15.9999C7.7 11.9999 11.9 9.9999 16 9.9999C17.3 9.9999 18.6 10.1999 19.9 10.5999L18 12.5999C17.4 12.1999 16.7 11.9999 16 11.9999C13.8 11.9999 12 13.7999 12 15.9999C12 16.6999 12.2 17.3999 12.6 17.9999L10 20.5999C7.8 19.5999 5.7 18.0999 3.5 15.9999Z" fill="#343434"/>
<path d="M30.7 15.2999C28.9 13.4999 27.1 12.0999 25.3 10.8999L23.8 12.3999C25.4 13.2999 26.9 14.4999 28.5 15.9999C23.7 20.4999 19 22.4999 14.3 21.8999L12.5 23.6999C13.6 23.9999 14.8 24.0999 15.9 24.0999C20.8 24.0999 25.7 21.6999 30.6 16.7999C31.1 16.2999 31.1 15.6999 30.7 15.2999Z" fill="#343434"/>
</svg>
