<svg width="32" height="32" viewBox="0 0 32 32" fill="none" xmlns="http://www.w3.org/2000/svg">
<path d="M16 20C18.2091 20 20 18.2091 20 16C20 13.7909 18.2091 12 16 12C13.7909 12 12 13.7909 12 16C12 18.2091 13.7909 20 16 20Z" fill="#343434"/>
<path d="M30.7 15.2999C21 5.5999 11 5.5999 1.3 15.2999C0.9 15.6999 0.9 16.2999 1.3 16.6999C6.2 21.5999 11.1 23.9999 16 23.9999C20.9 23.9999 25.8 21.5999 30.7 16.6999C31.1 16.2999 31.1 15.6999 30.7 15.2999ZM3.5 15.9999C7.7 11.9999 11.9 9.9999 16 9.9999C20.1 9.9999 24.3 11.9999 28.5 15.9999C20.1 23.9999 11.9 23.9999 3.5 15.9999Z" fill="#343434"/>
</svg>
