<svg width="32" height="32" viewBox="0 0 32 32" fill="none" xmlns="http://www.w3.org/2000/svg">
<path d="M26.5 1.9C26.4 1.4 26 1 25.5 1H4.5C3.9 1 3.5 1.4 3.5 2V6C3.5 6.6 3.9 7 4.5 7H5.4L2.5 29.9C2.5 30.2 2.6 30.5 2.7 30.7C2.9 30.9 3.2 31 3.5 31H28.5C28.8 31 29.1 30.9 29.2 30.7C29.4 30.5 29.5 30.2 29.4 29.9L26.5 1.9ZM4.6 29L7.4 7H19.5C20.1 7 20.5 6.6 20.5 6C20.5 5.4 20.1 5 19.5 5H5.5V3H24.4L21.6 29H4.6ZM23.6 29L25.5 11.4L27.4 29H23.6Z" fill="black"/>
<path d="M14.5 12C14.5 11.4 14.1 11 13.5 11C12.9 11 12.5 11.4 12.5 12V15C12.5 15.9 11.7 16 11.5 16C11.3 16 10.5 15.9 10.5 15V12C10.5 11.4 10.1 11 9.5 11C8.9 11 8.5 11.4 8.5 12V15C8.5 16.5 9.4 17.5 10.5 17.8V24C10.5 24.6 10.9 25 11.5 25C12.1 25 12.5 24.6 12.5 24V17.8C13.6 17.4 14.5 16.5 14.5 15V12Z" fill="black"/>
<path d="M18.5 11C17.9 11 17.5 11.4 17.5 12V17.1C17.3 17 17.2 17 17 17C15.6 17 14.5 18.1 14.5 19.5V22.5C14.5 23.9 15.6 25 17 25C18.4 25 19.5 23.9 19.5 22.5V12C19.5 11.4 19.1 11 18.5 11ZM17.5 20V22.5C17.5 22.8 17.3 23 17 23C16.7 23 16.5 22.8 16.5 22.5V19.5C16.5 19.2 16.7 19 17 19C17.3 19 17.5 19.2 17.5 19.5V20Z" fill="black"/>
</svg>
