<svg width="32" height="32" viewBox="0 0 32 32" fill="none" xmlns="http://www.w3.org/2000/svg">
<path d="M24.8 3.78C24.7133 3.34667 24.3667 3 23.9333 3H5.73333C5.21333 3 4.86667 3.34667 4.86667 3.86667V7.33333C4.86667 7.85333 5.21333 8.2 5.73333 8.2H6.51333L4 28.0467C4 28.3067 4.08667 28.5667 4.17333 28.74C4.34667 28.9133 4.60667 29 4.86667 29H26.5333C26.7933 29 27.0533 28.9133 27.14 28.74C27.3133 28.5667 27.4 28.3067 27.3133 28.0467L24.8 3.78ZM5.82 27.2667L8.24667 8.2H18.7333C19.2533 8.2 19.6 7.85333 19.6 7.33333C19.6 6.81333 19.2533 6.46667 18.7333 6.46667H6.6V4.73333H22.98L20.5533 27.2667H5.82ZM22.2867 27.2667L23.9333 12.0133L25.58 27.2667H22.2867Z" fill="#343434"/>
<path d="M14.4 12.5332C14.4 12.0132 14.0533 11.6665 13.5333 11.6665C13.0133 11.6665 12.6666 12.0132 12.6666 12.5332V15.1332C12.6666 15.9132 11.9733 15.9998 11.8 15.9998C11.6266 15.9998 10.9333 15.9132 10.9333 15.1332V12.5332C10.9333 12.0132 10.5866 11.6665 10.0666 11.6665C9.54662 11.6665 9.19995 12.0132 9.19995 12.5332V15.1332C9.19995 16.4332 9.97995 17.2998 10.9333 17.5598V22.9332C10.9333 23.4532 11.28 23.7998 11.8 23.7998C12.32 23.7998 12.6666 23.4532 12.6666 22.9332V17.5598C13.62 17.2132 14.4 16.4332 14.4 15.1332V12.5332Z" fill="#343434"/>
<path d="M17.8667 11.6665C17.3467 11.6665 17 12.0132 17 12.5332V16.9532C16.8267 16.8665 16.74 16.8665 16.5667 16.8665C15.3534 16.8665 14.4 17.8198 14.4 19.0332V21.6332C14.4 22.8465 15.3534 23.7998 16.5667 23.7998C17.78 23.7998 18.7334 22.8465 18.7334 21.6332V12.5332C18.7334 12.0132 18.3867 11.6665 17.8667 11.6665ZM17 19.4665V21.6332C17 21.8932 16.8267 22.0665 16.5667 22.0665C16.3067 22.0665 16.1334 21.8932 16.1334 21.6332V19.0332C16.1334 18.7732 16.3067 18.5998 16.5667 18.5998C16.8267 18.5998 17 18.7732 17 19.0332V19.4665Z" fill="#343434"/>
</svg>
