<svg width="32" height="32" viewBox="0 0 32 32" fill="none" xmlns="http://www.w3.org/2000/svg">
<path d="M8.49995 1.2998H2.19995C1.59995 1.2998 1.19995 1.6998 1.19995 2.2998V8.4998C1.19995 9.0998 1.59995 9.4998 2.19995 9.4998C2.79995 9.4998 3.19995 9.0998 3.19995 8.4998V3.2998H8.39995C8.99995 3.2998 9.39995 2.8998 9.39995 2.2998C9.39995 1.6998 9.09995 1.2998 8.49995 1.2998Z" fill="#343434"/>
<path d="M29.8 1.2998H23.6C23 1.2998 22.6 1.6998 22.6 2.2998C22.6 2.8998 23 3.2998 23.6 3.2998H28.8V8.4998C28.8 9.0998 29.2 9.4998 29.8 9.4998C30.4 9.4998 30.8 9.0998 30.8 8.4998V2.2998C30.8 1.6998 30.3 1.2998 29.8 1.2998Z" fill="#343434"/>
<path d="M29.8 22.5C29.2 22.5 28.8 22.9 28.8 23.5V28.7H23.6C23 28.7 22.6 29.1 22.6 29.7C22.6 30.3 23 30.7 23.6 30.7H29.8C30.4 30.7 30.8 30.3 30.8 29.7V23.5C30.8 22.9 30.3 22.5 29.8 22.5Z" fill="#343434"/>
<path d="M8.49995 28.7H3.19995V23.5C3.19995 22.9 2.79995 22.5 2.19995 22.5C1.59995 22.5 1.19995 22.9 1.19995 23.5V29.7C1.19995 30.3 1.59995 30.7 2.19995 30.7H8.39995C8.99995 30.7 9.39995 30.3 9.39995 29.7C9.39995 29.1 9.09995 28.7 8.49995 28.7Z" fill="#343434"/>
</svg>
