<svg width="32" height="32" viewBox="0 0 32 32" fill="none" xmlns="http://www.w3.org/2000/svg">
<path d="M8.4 1.2002C7.8 1.2002 7.4 1.6002 7.4 2.2002V7.6002H2C1.4 7.6002 1 8.0002 1 8.60019C1 9.20019 1.4 9.60019 2 9.60019H8.4C9 9.60019 9.4 9.20019 9.4 8.60019V2.2002C9.4 1.6002 8.9 1.2002 8.4 1.2002Z" fill="black"/>
<path d="M23.3999 9.60019H29.7999C30.3999 9.60019 30.7999 9.20019 30.7999 8.60019C30.7999 8.0002 30.3999 7.6002 29.7999 7.6002H24.3999V2.2002C24.3999 1.6002 23.9999 1.2002 23.3999 1.2002C22.7999 1.2002 22.3999 1.6002 22.3999 2.2002V8.60019C22.3999 9.10019 22.8999 9.60019 23.3999 9.60019Z" fill="black"/>
<path d="M29.7999 22.6001H23.3999C22.7999 22.6001 22.3999 23.0001 22.3999 23.6001V30.0001C22.3999 30.6001 22.7999 31.0001 23.3999 31.0001C23.9999 31.0001 24.3999 30.6001 24.3999 30.0001V24.6001H29.7999C30.3999 24.6001 30.7999 24.2001 30.7999 23.6001C30.7999 23.0001 30.3999 22.6001 29.7999 22.6001Z" fill="black"/>
<path d="M8.4 22.6001H2C1.4 22.6001 1 23.0001 1 23.6001C1 24.2001 1.4 24.6001 2 24.6001H7.4V30.0001C7.4 30.6001 7.8 31.0001 8.4 31.0001C9 31.0001 9.4 30.6001 9.4 30.0001V23.6001C9.4 23.1001 8.9 22.6001 8.4 22.6001Z" fill="black"/>
</svg>
