<svg width="32" height="32" viewBox="0 0 32 32" fill="none" xmlns="http://www.w3.org/2000/svg">
<path d="M30 15H27.9C27.5 9.2 22.8 4.5 17 4.1V2C17 1.4 16.6 1 16 1C15.4 1 15 1.4 15 2V4.1C9.2 4.5 4.5 9.2 4.1 15H2C1.4 15 1 15.4 1 16C1 16.6 1.4 17 2 17H4.1C4.5 22.8 9.2 27.5 15 27.9V30C15 30.6 15.4 31 16 31C16.6 31 17 30.6 17 30V27.9C22.8 27.4 27.5 22.8 27.9 17H30C30.6 17 31 16.6 31 16C31 15.4 30.6 15 30 15ZM17 25.9V23C17 22.4 16.6 22 16 22C15.4 22 15 22.4 15 23V25.9C10.3 25.4 6.5 21.7 6.1 17H9C9.6 17 10 16.6 10 16C10 15.4 9.6 15 9 15H6.1C6.6 10.3 10.3 6.5 15 6.1V9C15 9.6 15.4 10 16 10C16.6 10 17 9.6 17 9V6.1C21.7 6.6 25.5 10.3 25.9 15H23C22.4 15 22 15.4 22 16C22 16.6 22.4 17 23 17H25.9C25.5 21.7 21.7 25.5 17 25.9Z" fill="#343434"/>
<path d="M16 11C13.2 11 11 13.2 11 16C11 18.8 13.2 21 16 21C18.8 21 21 18.8 21 16C21 13.2 18.8 11 16 11ZM16 19C14.3 19 13 17.7 13 16C13 14.3 14.3 13 16 13C17.7 13 19 14.3 19 16C19 17.7 17.7 19 16 19Z" fill="#343434"/>
</svg>
