<svg width="32" height="32" viewBox="0 0 32 32" fill="none" xmlns="http://www.w3.org/2000/svg">
<path d="M23.5 4.8001C20.7 4.0001 17.9 5.1001 16 7.4001C14.1 5.1001 11.3 4.0001 8.49995 4.8001C5.29995 5.6001 3.19995 8.5001 3.19995 11.9001C3.19995 18.7001 15 26.9001 15.5 27.3001L16.1 27.7001L16.7 27.3001C17.2 27.0001 29 18.7001 29 11.9001C28.7999 8.5001 26.7 5.6001 23.5 4.8001ZM16 25.2001C12.5 22.7001 5.19995 16.4001 5.19995 11.9001C5.19995 9.0001 7.09995 7.2001 8.99995 6.7001C9.39995 6.6001 9.79995 6.5001 10.3 6.5001C11.9 6.5001 13.8 7.3001 15.1 9.6001L16 11.1001L16.9 9.6001C18.6 6.7001 21.2 6.2001 23 6.6001C24.9 7.1001 26.7999 8.9001 26.7999 11.8001C26.7999 16.4001 19.5 22.7001 16 25.2001Z" fill="#343434"/>
</svg>
