<svg width="32" height="32" viewBox="0 0 32 32" fill="none" xmlns="http://www.w3.org/2000/svg">
<path d="M28.3 13.2002L17.3 2.6002C16.5 1.9002 15.3 1.9002 14.6 2.6002L3.60002 13.2002C3.20002 13.6002 2.90002 14.2002 2.90002 14.7002V27.9002C3.00002 29.1002 3.90002 30.0002 5.00002 30.0002H12C13.1 30.0002 14 29.1002 14 27.9002V21.1002C14 21.0002 14 21.0002 14 21.0002H18V21.1002V27.9002C18 29.1002 18.9 30.0002 20 30.0002H27C28.1 30.0002 29 29.1002 29 27.9002V14.7002C29 14.1002 28.8 13.6002 28.3 13.2002ZM27 27.9002C27 28.0002 27 28.0002 27 27.9002L20 28.0002V27.9002V21.1002C20 19.9002 19.1 19.0002 18 19.0002H14C12.9 19.0002 12 19.9002 12 21.1002V27.9002C12 28.0002 12 28.0002 12 28.0002H5.00002C5.00002 28.0002 5.00002 28.0002 5.00002 27.9002V14.7002V14.6002L16 4.0002L27 14.6002L27.1 14.7002V27.9002H27Z" fill="#343434"/>
</svg>
