<svg width="32" height="32" viewBox="0 0 32 32" fill="none" xmlns="http://www.w3.org/2000/svg">
<path d="M27.5 4.5H4.5C3.9 4.5 3.5 4.9 3.5 5.5V26.5C3.5 27.1 3.9 27.5 4.5 27.5H27.5C28.1 27.5 28.5 27.1 28.5 26.5V5.5C28.5 4.9 28.1 4.5 27.5 4.5ZM26.5 6.5V21.4L22.1 17.8C21.7 17.5 21.1 17.5 20.8 17.9L17.5 21.2C17.5 21.2 10.2 13.9 10.1 13.8C9.7 13.4 9 13.5 8.7 13.9L5.5 17.8V6.5H26.5ZM5.5 25.5V20.9L9.6 16L16.8 23.2C17 23.4 17.3 23.5 17.5 23.5C17.7 23.5 18 23.4 18.2 23.2L21.6 19.8L26.5 23.9V25.4H5.5V25.5Z" fill="#343434"/>
<path d="M18 15.5C19.9 15.5 21.5 13.9 21.5 12C21.5 10.1 19.9 8.5 18 8.5C16.1 8.5 14.5 10.1 14.5 12C14.5 13.9 16.1 15.5 18 15.5ZM18 10.5C18.8 10.5 19.5 11.2 19.5 12C19.5 12.8 18.8 13.5 18 13.5C17.2 13.5 16.5 12.8 16.5 12C16.5 11.2 17.2 10.5 18 10.5Z" fill="#343434"/>
</svg>
