<svg width="32" height="32" viewBox="0 0 32 32" fill="none" xmlns="http://www.w3.org/2000/svg">
<path d="M16 4C9.4 4 4 9.4 4 16C4 22.6 9.4 28 16 28C22.6 28 28 22.6 28 16C28 9.4 22.6 4 16 4ZM16 26C10.5 26 6 21.5 6 16C6 10.5 10.5 6 16 6C21.5 6 26 10.5 26 16C26 21.5 21.5 26 16 26Z" fill="black"/>
<path d="M16.9 13.7998H14.8V23.8998H16.9V13.7998Z" fill="black"/>
<path d="M15.9 9.3999C15.5 9.3999 15.2 9.4999 15 9.7999C14.8 10.0999 14.6 10.2999 14.6 10.6999C14.6 11.0999 14.7 11.3999 15 11.5999C15.3 11.7999 15.5 11.9999 15.9 11.9999C16.3 11.9999 16.6 11.8999 16.8 11.5999C17 11.3999 17.2 11.0999 17.2 10.6999C17.2 10.2999 17 9.9999 16.8 9.6999C16.6 9.4999 16.3 9.3999 15.9 9.3999Z" fill="black"/>
</svg>
