<svg width="32" height="32" viewBox="0 0 32 32" fill="none" xmlns="http://www.w3.org/2000/svg">
<path d="M27.1 3.8999H22.7C22.4 3.8999 22.2 3.9999 22 4.1999L14.5 11.6999C11.6 10.8999 8.5 11.6999 6.4 13.7999C4.8 15.3999 4 17.4999 4 19.6999C4 21.8999 4.9 23.9999 6.4 25.5999C8 27.1999 10.2 27.9999 12.3 27.9999C14.4 27.9999 16.6 27.1999 18.2 25.5999C20.3 23.4999 21.1 20.3999 20.3 17.4999L21.9 15.8999C22.1 15.6999 22.2 15.4999 22.2 15.1999V13.1999H24.2C24.8 13.1999 25.2 12.7999 25.2 12.1999V10.1999H27.2C27.8 10.1999 28.2 9.7999 28.2 9.1999V4.8999C28.1 4.3999 27.6 3.8999 27.1 3.8999ZM26.1 8.3999H24.1C23.5 8.3999 23.1 8.7999 23.1 9.3999V11.3999H21.1C20.5 11.3999 20.1 11.7999 20.1 12.3999V14.8999L18.4 16.5999C18.1 16.8999 18 17.2999 18.2 17.5999C19 19.8999 18.4 22.4999 16.7 24.1999C14.2 26.6999 10.2 26.6999 7.7 24.1999C6.5 22.9999 5.8 21.3999 5.8 19.6999C5.8 17.9999 6.5 16.3999 7.7 15.1999C8.9 13.9999 10.5 13.3999 12.2 13.3999C12.9 13.3999 13.6 13.4999 14.3 13.7999C14.7 13.8999 15.1 13.7999 15.3 13.5999L23 5.8999H26V8.3999H26.1Z" fill="#343434"/>
<path d="M9.70001 17C8.20001 18.5 8.20001 20.9 9.70001 22.4C10.4 23.1 11.4 23.5 12.4 23.5C13.4 23.5 14.3 23.1 15.1 22.4C16.6 20.9 16.6 18.5 15.1 17C13.6 15.5 11.2 15.5 9.70001 17ZM13.6 20.9C12.9 21.6 11.8 21.6 11.1 20.9C10.4 20.2 10.4 19.1 11.1 18.4C11.4 18.1 11.9 17.9 12.4 17.9C12.9 17.9 13.3 18.1 13.7 18.4C14.3 19.1 14.3 20.2 13.6 20.9Z" fill="#343434"/>
</svg>
