<svg width="32" height="32" viewBox="0 0 32 32" fill="none" xmlns="http://www.w3.org/2000/svg">
<path d="M26.2 8.00016C26.1 7.10017 25.4 6.40017 24.6 6.40017C18.5 5.90017 14.1 7.10016 11.4 9.90016C8.80001 12.6002 7.90001 16.9002 8.60001 22.6002L6.00001 25.1002C5.60001 25.5002 5.60001 26.1002 6.00001 26.5002C6.20001 26.7002 6.50001 26.8002 6.70001 26.8002C6.90001 26.8002 7.20001 26.7002 7.40001 26.5002L9.90001 24.0002C11.1 24.1002 12.2 24.2002 13.3 24.2002C17.3 24.2002 20.4 23.2002 22.6 21.1002C25.5 18.5002 26.7 14.1002 26.2 8.00016ZM12.8 11.3002C14.8 9.20017 18.2 8.20017 22.8 8.30017L18.3 12.8002V11.0002C18.3 10.4002 17.9 10.0002 17.3 10.0002C16.7 10.0002 16.3 10.4002 16.3 11.0002V14.8002L14.8 16.3002V13.1002C14.8 12.5002 14.4 12.1002 13.8 12.1002C13.2 12.1002 12.8 12.5002 12.8 13.1002V18.3002L10.3 20.8002C10.1 16.5002 10.9 13.3002 12.8 11.3002ZM21.3 19.8002C19.3 21.7002 16.1 22.6002 11.8 22.3002L14.3 19.8002H19.5C20.1 19.8002 20.5 19.4002 20.5 18.8002C20.5 18.2002 20.1 17.8002 19.5 17.8002H16.3L17.8 16.3002H21.6C22.2 16.3002 22.6 15.9002 22.6 15.3002C22.6 14.7002 22.2 14.3002 21.6 14.3002H19.8L24.3 9.80017C24.4 14.4002 23.5 17.7002 21.3 19.8002Z" fill="#343434"/>
</svg>
