<svg width="32" height="32" viewBox="0 0 32 32" fill="none" xmlns="http://www.w3.org/2000/svg">
<path d="M12 19.5996C12.2 19.7996 12.5 19.8996 12.7 19.8996C12.9 19.8996 13.2 19.7996 13.4 19.5996L19.2 13.7996C19.6 13.3996 19.6 12.7996 19.2 12.3996C18.8 11.9996 18.2 11.9996 17.8 12.3996L12 18.1996C11.6 18.5996 11.6 19.1996 12 19.5996Z" fill="#343434"/>
<path d="M25.1 6.49979C23.6 4.99979 21 4.49979 19 6.49979L14.3 11.1998C13.9 11.5998 13.9 12.1998 14.3 12.5998C14.5 12.7998 14.8 12.8998 15 12.8998C15.2 12.8998 15.5 12.7998 15.7 12.5998L20.4 7.99979C21.5 6.89979 22.8 7.19979 23.7 7.99979C24.1 8.39979 24.4 8.99979 24.4 9.49979C24.4 10.0998 24.2 10.6998 23.7 11.1998L19 15.8998C18.6 16.2998 18.6 16.8998 19 17.2998C19.2 17.4998 19.5 17.5998 19.7 17.5998C19.9 17.5998 20.2 17.4998 20.4 17.2998L25.1 12.5998C27.1 10.5998 26.6 8.09979 25.1 6.49979Z" fill="#343434"/>
<path d="M15.5 19.3999L10.9 23.9999C10.1 24.7999 9.29999 24.7999 8.79999 24.6999C7.99999 24.4999 7.19999 23.7999 6.99999 22.8999C6.89999 22.3999 6.89999 21.5999 7.69999 20.7999L12.4 16.0999C12.8 15.6999 12.8 15.0999 12.4 14.6999C12 14.2999 11.4 14.2999 11 14.6999L6.29999 19.3999C5.09999 20.4999 4.59999 21.9999 4.99999 23.3999C5.39999 24.8999 6.69999 26.1999 8.19999 26.5999C8.49999 26.6999 8.89999 26.6999 9.19999 26.6999C10.3 26.6999 11.4 26.1999 12.2 25.3999L16.9 20.6999C17.3 20.2999 17.3 19.6999 16.9 19.2999C16.5 18.9999 15.9 18.9999 15.5 19.3999Z" fill="#343434"/>
</svg>
