<svg width="32" height="32" viewBox="0 0 32 32" fill="none" xmlns="http://www.w3.org/2000/svg">
<path d="M12.0002 19.5996C12.2002 19.7996 12.5002 19.8996 12.7002 19.8996C12.9002 19.8996 13.2002 19.7996 13.4002 19.5996L19.2002 13.7996C19.6002 13.3996 19.6002 12.7996 19.2002 12.3996C18.8002 11.9996 18.2002 11.9996 17.8002 12.3996L12.0002 18.1996C11.6002 18.5996 11.6002 19.1996 12.0002 19.5996Z" fill="black"/>
<path d="M25.1 6.49979C23.6 4.99979 21 4.49979 19 6.49979L14.3 11.1998C13.9 11.5998 13.9 12.1998 14.3 12.5998C14.5 12.7998 14.8 12.8998 15 12.8998C15.2 12.8998 15.5 12.7998 15.7 12.5998L20.4 7.99979C21.5 6.89979 22.8 7.19979 23.7 7.99979C24.1 8.39979 24.4 8.99979 24.4 9.49979C24.4 10.0998 24.2 10.6998 23.7 11.1998L19 15.8998C18.6 16.2998 18.6 16.8998 19 17.2998C19.2 17.4998 19.5 17.5998 19.7 17.5998C19.9 17.5998 20.2 17.4998 20.4 17.2998L25.1 12.5998C27.1 10.5998 26.6 8.09979 25.1 6.49979Z" fill="black"/>
<path d="M15.5001 19.3999L10.9001 23.9999C10.1001 24.7999 9.30012 24.7999 8.80012 24.6999C8.00012 24.4999 7.20012 23.7999 7.00012 22.8999C6.90012 22.3999 6.90012 21.5999 7.70012 20.7999L12.4001 16.0999C12.8001 15.6999 12.8001 15.0999 12.4001 14.6999C12.0001 14.2999 11.4001 14.2999 11.0001 14.6999L6.30012 19.3999C5.10012 20.4999 4.60012 21.9999 5.00012 23.3999C5.40012 24.8999 6.70012 26.1999 8.20012 26.5999C8.50012 26.6999 8.90012 26.6999 9.20012 26.6999C10.3001 26.6999 11.4001 26.1999 12.2001 25.3999L16.9001 20.6999C17.3001 20.2999 17.3001 19.6999 16.9001 19.2999C16.5001 18.9999 15.9001 18.9999 15.5001 19.3999Z" fill="black"/>
</svg>
