<svg width="32" height="32" viewBox="0 0 32 32" fill="none" xmlns="http://www.w3.org/2000/svg">
<path d="M11.3 20.6999C11.5 20.8999 11.8 20.9999 12 20.9999C12.2 20.9999 12.5 20.8999 12.7 20.6999L20.8 12.5999C21.2 12.1999 21.2 11.5999 20.8 11.1999C20.4 10.7999 19.8 10.7999 19.4 11.1999L11.3 19.2999C10.9 19.6999 10.9 20.2999 11.3 20.6999Z" fill="black"/>
<path d="M30.3 5.80003C29.8 3.80003 28.1 2.20003 26.2 1.70003C24.3 1.20003 22.4 1.80003 21 3.20003L14.6 9.60003C14.2 10 14.2 10.6 14.6 11C14.8 11.2 15.1 11.3 15.3 11.3C15.5 11.3 15.8 11.2 16 11L22.4 4.60003C23.6 3.40003 24.9 3.40003 25.7 3.60003C26.9 4.00003 28 5.10003 28.4 6.30003C28.6 7.10003 28.6 8.40003 27.4 9.60003L21 16C20.6 16.4 20.6 17 21 17.4C21.2 17.6 21.5 17.7 21.7 17.7C21.9 17.7 22.2 17.6 22.4 17.4L28.8 11C30.3 9.60003 30.8 7.70003 30.3 5.80003Z" fill="black"/>
<path d="M16.1 20.8998L9.69995 27.2998C8.49995 28.4998 7.19995 28.4998 6.39995 28.2998C5.09995 27.9998 3.99995 26.8998 3.59995 25.6998C3.39995 24.8998 3.39995 23.5998 4.59995 22.3998L11 15.9998C11.4 15.5998 11.4 14.9998 11 14.5998C10.6 14.1998 9.99995 14.1998 9.59995 14.5998L3.19995 20.9998C1.69995 22.4998 1.19995 24.3998 1.69995 26.1998C2.19995 28.1998 3.89995 29.7998 5.79995 30.2998C6.19995 30.3998 6.69995 30.4998 7.09995 30.4998C8.49995 30.4998 9.89995 29.8998 11 28.7998L17.4 22.3998C17.8 21.9998 17.8 21.3998 17.4 20.9998C17 20.5998 16.5 20.4998 16.1 20.8998Z" fill="black"/>
</svg>
