<svg width="32" height="32" viewBox="0 0 32 32" fill="none" xmlns="http://www.w3.org/2000/svg">
<path d="M16 15.8999C18.5 15.8999 20.5 13.8999 20.5 11.3999C20.5 8.8999 18.5 6.8999 16 6.8999C13.5 6.8999 11.5 8.8999 11.5 11.3999C11.5 13.8999 13.5 15.8999 16 15.8999ZM16 8.8999C17.4 8.8999 18.5 9.9999 18.5 11.3999C18.5 12.7999 17.4 13.8999 16 13.8999C14.6 13.8999 13.5 12.7999 13.5 11.3999C13.5 9.9999 14.6 8.8999 16 8.8999Z" fill="#343434"/>
<path d="M22.5 20.4001L23.3 19.5001C26.1 16.5001 26.9 12.3001 25.4 8.5001C24 4.8001 20.7 2.4001 16.8 2.1001C16.3 2.1001 15.7 2.1001 15.2 2.1001C11.3 2.4001 8 4.8001 6.6 8.5001C5.1 12.3001 5.9 16.5001 8.7 19.5001L9.5 20.4001C6 21.3001 4 22.9001 4 24.8001C4 28.2001 10 29.9001 16 29.9001C22 29.9001 28 28.1001 28 24.8001C28 22.9001 26 21.3001 22.5 20.4001ZM8.4 9.2001C9.6 6.2001 12.1 4.3001 15.3 4.1001C15.5 4.1001 15.8 4.1001 16 4.1001C16.2 4.1001 16.5 4.1001 16.7 4.1001C19.8 4.3001 22.4 6.2001 23.6 9.2001C24.8 12.3001 24.2 15.7001 21.9 18.1001L19.8 20.3001L17.5 22.8001C17.1 23.2001 16.6 23.5001 16 23.5001C15.9 23.5001 15.7 23.5001 15.6 23.5001C15.2 23.4001 14.8 23.2001 14.5 22.9001L10.1 18.2001C7.9 15.7001 7.2 12.3001 8.4 9.2001ZM16 27.9001C9.9 27.9001 6 26.0001 6 24.8001C6 24.0001 7.8 22.8001 11.1 22.1001L13 24.2001C13.7 25.0001 14.7 25.4001 15.8 25.5001C15.9 25.5001 15.9 25.5001 16 25.5001C17.1 25.5001 18.2 25.0001 19 24.2001L20.9 22.1001C24.2 22.8001 26 23.9001 26 24.8001C26 26.0001 22.1 27.9001 16 27.9001Z" fill="#343434"/>
</svg>
