<svg width="32" height="32" viewBox="0 0 32 32" fill="none" xmlns="http://www.w3.org/2000/svg">
<path d="M5.5 17.0001H24.1L21.4 19.7001C21 20.1001 21 20.7001 21.4 21.1001C21.8 21.5001 22.4 21.5001 22.8 21.1001L27.2 16.7001C27.6 16.3001 27.6 15.7001 27.2 15.3001L22.8 10.9001C22.6 10.7001 22.3 10.6001 22.1 10.6001C21.9 10.6001 21.6 10.7001 21.4 10.9001C21 11.3001 21 11.9001 21.4 12.3001L24.1 15.0001H5.5C4.9 15.0001 4.5 15.4001 4.5 16.0001C4.5 16.6001 4.9 17.0001 5.5 17.0001Z" fill="black"/>
</svg>
