<svg width="32" height="32" viewBox="0 0 32 32" fill="none" xmlns="http://www.w3.org/2000/svg">
<path d="M16 3C8.9 3 3 8.8 3 16C3 23.2 8.8 29 16 29C23.2 29 29 23.2 29 16C29 8.8 23.2 3 16 3ZM16 27C10 27 5 22.1 5 16C5 9.9 10 5 16 5C22 5 27 9.9 27 16C27 22.1 22.1 27 16 27Z" fill="#343434"/>
<path d="M17 9.1V8C17 7.4 16.6 7 16 7C15.4 7 15 7.4 15 8V9.1C13.9 9.4 13 10.2 12.6 11.4C12.2 12.7 12.5 14 13.5 14.9L17.1 18.5C17.5 18.9 17.6 19.4 17.5 20C17.4 20.2 17.2 20.8 16.6 20.9C15.9 21.1 15.2 21 14.7 20.6C14.3 20.2 14 19.7 14 19C14 18.4 13.6 18 13 18C12.4 18 12 18.4 12 19C12 20.3 12.5 21.5 13.5 22.2C13.9 22.5 14.5 22.8 15 22.9V24C15 24.6 15.4 25 16 25C16.6 25 17 24.6 17 24V22.9C17.1 22.9 17.1 22.9 17.2 22.9C18.3 22.6 19.2 21.7 19.5 20.5C19.8 19.3 19.5 18 18.6 17.1L15 13.5C14.5 13 14.5 12.4 14.6 12C14.7 11.8 14.9 11.2 15.7 11.1C16.3 11 17 11.2 17.4 11.5C17.8 11.9 18 12.4 18 13.1C18 13.7 18.4 14.1 19 14.1C19.6 14.1 20 13.7 20 13.1C20 11.8 19.5 10.7 18.6 10C18.2 9.5 17.6 9.3 17 9.1Z" fill="#343434"/>
</svg>
