<svg width="32" height="32" viewBox="0 0 32 32" fill="none" xmlns="http://www.w3.org/2000/svg">
<path d="M25.8001 11.3999C26.3001 12.5999 26.5001 13.8999 26.5001 15.2999C26.5001 21.3999 21.6001 26.2999 15.5001 26.2999C14.1001 26.2999 12.8001 25.9999 11.6001 25.5999L10.1001 27.0999C11.7001 27.8999 13.6001 28.2999 15.5001 28.2999C22.7001 28.2999 28.5001 22.4999 28.5001 15.2999C28.5001 13.3999 28.1001 11.4999 27.3001 9.8999L25.8001 11.3999Z" fill="black"/>
<path d="M16.5 23.2998V22.1998C16.6 22.1998 16.6 22.1998 16.7 22.1998C17.8 21.8998 18.7 20.9998 19 19.7998C19.1 19.2998 19.1 18.7998 19 18.2998L14.5 22.7998V23.3998C14.5 23.9998 14.9 24.3998 15.5 24.3998C16.1 24.3998 16.5 23.7998 16.5 23.2998Z" fill="black"/>
<path d="M29.2 4.5999C28.8 4.1999 28.2 4.1999 27.8 4.5999L25.4 6.9999C23 4.1999 19.4 2.3999 15.5 2.3999C8.3 2.3999 2.5 8.1999 2.5 15.3999C2.5 19.3999 4.3 22.9999 7.1 25.2999L4.7 27.6999C4.3 28.0999 4.3 28.6999 4.7 29.0999C4.9 29.2999 5.2 29.3999 5.4 29.3999C5.6 29.3999 6 29.1999 6.2 28.9999L29.2 5.9999C29.6 5.5999 29.6 4.9999 29.2 4.5999ZM4.5 15.2999C4.5 9.1999 9.4 4.2999 15.5 4.2999C18.9 4.2999 22 5.8999 24 8.3999L17 15.3999L14.4 12.7999C13.9 12.2999 13.9 11.6999 14 11.2999C14.1 11.0999 14.3 10.4999 15.1 10.2999C15.7 10.1999 16.4 10.3999 16.8 10.6999C17.2 11.0999 17.4 11.5999 17.4 12.2999C17.4 12.8999 17.8 13.2999 18.4 13.2999C19 13.2999 19.4 12.8999 19.4 12.2999C19.4 10.9999 18.9 9.8999 18 9.1999C17.5 8.7999 17 8.4999 16.4 8.3999V7.2999C16.4 6.6999 16 6.2999 15.4 6.2999C14.8 6.2999 14.4 6.6999 14.4 7.2999V8.3999C13.3 8.6999 12.4 9.4999 12 10.6999C11.6 11.9999 11.9 13.2999 12.9 14.1999L15.5 16.7999L13.5 18.7999C13.5 18.5999 13.4 18.3999 13.4 18.1999C13.4 17.5999 13 17.1999 12.4 17.1999C11.8 17.1999 11.4 17.5999 11.4 18.1999C11.4 18.9999 11.6 19.6999 11.9 20.2999L8.4 23.7999C6.1 21.7999 4.5 18.6999 4.5 15.2999Z" fill="black"/>
</svg>
