<svg width="32" height="32" viewBox="0 0 32 32" fill="none" xmlns="http://www.w3.org/2000/svg">
<path d="M26.8 4.1001C26.8 3.8001 26.7 3.5001 26.4 3.3001C26.1 3.1001 25.8 3.1001 25.5 3.1001L11.5 7.1001C11.1 7.2001 10.8 7.6001 10.8 8.1001V20.9001C10.1 20.4001 9.20005 20.1001 8.30005 20.1001C5.80005 20.1001 3.80005 22.1001 3.80005 24.6001C3.80005 27.1001 5.80005 29.1001 8.30005 29.1001C10.8 29.1001 12.8 27.1001 12.8 24.6001C12.8 24.5001 12.8 8.9001 12.8 8.9001L24.8 5.5001V16.9001C24.1 16.4001 23.2 16.1001 22.3 16.1001C19.8 16.1001 17.8 18.1001 17.8 20.6001C17.8 23.1001 19.8 25.1001 22.3 25.1001C24.8 25.1001 26.8 23.1001 26.8 20.6001C26.8 20.4001 26.8 4.1001 26.8 4.1001ZM8.30005 27.1001C6.90005 27.1001 5.80005 26.0001 5.80005 24.6001C5.80005 23.2001 6.90005 22.1001 8.30005 22.1001C9.70005 22.1001 10.8 23.2001 10.8 24.6001C10.8 26.0001 9.70005 27.1001 8.30005 27.1001ZM22.3 23.1001C20.9 23.1001 19.8 22.0001 19.8 20.6001C19.8 19.2001 20.9 18.1001 22.3 18.1001C23.7 18.1001 24.8 19.2001 24.8 20.6001C24.8 22.0001 23.7 23.1001 22.3 23.1001Z" fill="#343434"/>
</svg>
