<svg width="32" height="32" viewBox="0 0 32 32" fill="none" xmlns="http://www.w3.org/2000/svg">
<path d="M28.6 22.0999L25.3 18.7999C24.3 17.7999 22.5 17.7999 21.5 18.7999L19.7 20.5999C17.9 19.8999 12.1 14.0999 11.4 12.2999L13.2 10.4999C14.2 9.4999 14.2 7.7999 13.2 6.6999L9.9 3.3999C8.9 2.3999 7.2 2.3999 6.1 3.3999L4.1 5.3999C2.8 6.6999 2.3 8.6999 2.8 10.3999C5.7 20.0999 12 26.3999 21.5 29.0999C22 29.1999 22.4 29.2999 22.9 29.2999C24.2 29.2999 25.5 28.7999 26.5 27.7999L28.5 25.7999C29.6 24.7999 29.6 23.0999 28.6 22.0999ZM27.2 24.3999L25.2 26.3999C24.4 27.1999 23.2 27.4999 22.2 27.1999C13.2 24.6999 7.5 18.9999 4.8 9.8999C4.5 8.7999 4.8 7.5999 5.6 6.7999L7.6 4.7999C7.7 4.6999 7.9 4.5999 8 4.5999C8.2 4.5999 8.3 4.6999 8.5 4.7999L11.8 8.0999C12.1 8.3999 12.1 8.7999 11.8 8.9999L9.7 11.0999C9.5 11.3999 9.2 11.8999 9.4 12.5999C10.2 15.0999 17.1 21.9999 19.4 22.4999C20.2 22.6999 20.6 22.2999 20.8 22.1999L22.9 20.0999C23.1 19.8999 23.6 19.8999 23.8 20.0999L27.1 23.3999C27.4 23.7999 27.4 24.1999 27.2 24.3999Z" fill="#343434"/>
</svg>
