<svg width="32" height="32" viewBox="0 0 32 32" fill="none" xmlns="http://www.w3.org/2000/svg">
<path d="M16 11C12.7 11 10 13.7 10 17C10 20.3 12.7 23 16 23C19.3 23 22 20.3 22 17C22 13.7 19.3 11 16 11ZM16 21C13.8 21 12 19.2 12 17C12 14.8 13.8 13 16 13C18.2 13 20 14.8 20 17C20 19.2 18.2 21 16 21Z" fill="#343434"/>
<path d="M29 8H23V6C23 5.4 22.6 5 22 5H10C9.4 5 9 5.4 9 6V8H3C2.4 8 2 8.4 2 9V26C2 26.6 2.4 27 3 27H29C29.6 27 30 26.6 30 26V9C30 8.4 29.6 8 29 8ZM28 25H4V10H10C10.6 10 11 9.6 11 9V7H21V9C21 9.6 21.4 10 22 10H28V25Z" fill="#343434"/>
</svg>
