<svg width="32" height="32" viewBox="0 0 32 32" fill="none" xmlns="http://www.w3.org/2000/svg">
<path d="M16 4.5C9.4 4.5 4 9.9 4 16.5C4 23.1 9.4 28.5 16 28.5C22.6 28.5 28 23.1 28 16.5C28 9.9 22.6 4.5 16 4.5ZM16 26.5C10.5 26.5 6 22 6 16.5C6 11 10.5 6.5 16 6.5C21.5 6.5 26 11 26 16.5C26 22 21.5 26.5 16 26.5Z" fill="black"/>
<path d="M22.3999 15.5H16.8999V10.5C16.8999 9.9 16.4999 9.5 15.8999 9.5C15.2999 9.5 14.8999 9.9 14.8999 10.5V15.5H10.3999C9.7999 15.5 9.3999 15.9 9.3999 16.5C9.3999 17.1 9.7999 17.5 10.3999 17.5H14.8999V22.5C14.8999 23.1 15.2999 23.5 15.8999 23.5C16.4999 23.5 16.8999 23.1 16.8999 22.5V17.5H22.3999C22.9999 17.5 23.3999 17.1 23.3999 16.5C23.3999 15.9 22.8999 15.5 22.3999 15.5Z" fill="black"/>
</svg>
