<svg width="32" height="32" viewBox="0 0 32 32" fill="none" xmlns="http://www.w3.org/2000/svg">
<path d="M16 4C13.6266 4 11.3066 4.70379 9.33316 6.02236C7.35977 7.34094 5.8217 9.21509 4.91345 11.4078C4.0052 13.6005 3.76756 16.0133 4.23058 18.3411C4.6936 20.6689 5.83649 22.8071 7.51472 24.4853C9.19295 26.1635 11.3312 27.3064 13.6589 27.7694C15.9867 28.2324 18.3995 27.9948 20.5922 27.0866C22.7849 26.1783 24.6591 24.6402 25.9776 22.6668C27.2962 20.6935 28 18.3734 28 16C28 12.8174 26.7357 9.76515 24.4853 7.51472C22.2348 5.26428 19.1826 4 16 4ZM16 26C14.0222 26 12.0888 25.4135 10.4443 24.3147C8.79981 23.2159 7.51809 21.6541 6.76121 19.8268C6.00433 17.9996 5.8063 15.9889 6.19215 14.0491C6.578 12.1093 7.53041 10.3275 8.92894 8.92893C10.3275 7.53041 12.1093 6.578 14.0491 6.19215C15.9889 5.8063 17.9996 6.00433 19.8268 6.7612C21.6541 7.51808 23.2159 8.79981 24.3147 10.4443C25.4135 12.0888 26 14.0222 26 16C26 18.6522 24.9464 21.1957 23.0711 23.0711C21.1957 24.9464 18.6522 26 16 26Z" fill="#343434"/>
<path d="M21.39 15H16.89V10C16.89 9.73478 16.7847 9.48043 16.5971 9.29289C16.4096 9.10536 16.1552 9 15.89 9C15.6248 9 15.3704 9.10536 15.1829 9.29289C14.9954 9.48043 14.89 9.73478 14.89 10V15H10.39C10.1248 15 9.87044 15.1054 9.68291 15.2929C9.49537 15.4804 9.39001 15.7348 9.39001 16C9.39001 16.2652 9.49537 16.5196 9.68291 16.7071C9.87044 16.8946 10.1248 17 10.39 17H14.89V22C14.89 22.2652 14.9954 22.5196 15.1829 22.7071C15.3704 22.8946 15.6248 23 15.89 23C16.1552 23 16.4096 22.8946 16.5971 22.7071C16.7847 22.5196 16.89 22.2652 16.89 22V17H21.39C21.6552 17 21.9096 16.8946 22.0971 16.7071C22.2847 16.5196 22.39 16.2652 22.39 16C22.39 15.7348 22.2847 15.4804 22.0971 15.2929C21.9096 15.1054 21.6552 15 21.39 15Z" fill="#343434"/>
</svg>
