<svg width="32" height="32" viewBox="0 0 32 32" fill="none" xmlns="http://www.w3.org/2000/svg">
<path d="M30 7H26V4C26 3.4 25.6 3 25 3H7C6.4 3 6 3.4 6 4V7H2C1.4 7 1 7.4 1 8V23C1 23.6 1.4 24 2 24H8V28C8 28.6 8.4 29 9 29H23C23.6 29 24 28.6 24 28V24H30C30.6 24 31 23.6 31 23V8C31 7.4 30.6 7 30 7ZM8 5H24V7H8V5ZM22 27H10V17.2C10 17.1 10 17.1 10 17H22V27ZM24 17H25C25.6 17 26 16.6 26 16C26 15.4 25.6 15 25 15H7C6.4 15 6 15.4 6 16C6 16.6 6.4 17 7 17H8C8 17.1 8 17.1 8 17.2V22H3V9H29V22H24V17Z" fill="#343434"/>
<path d="M13 21H19C19.6 21 20 20.6 20 20C20 19.4 19.6 19 19 19H13C12.4 19 12 19.4 12 20C12 20.6 12.4 21 13 21Z" fill="#343434"/>
<path d="M13 25H19C19.6 25 20 24.6 20 24C20 23.4 19.6 23 19 23H13C12.4 23 12 23.4 12 24C12 24.6 12.4 25 13 25Z" fill="#343434"/>
<path d="M9 11H7C6.4 11 6 11.4 6 12C6 12.6 6.4 13 7 13H9C9.6 13 10 12.6 10 12C10 11.4 9.6 11 9 11Z" fill="#343434"/>
</svg>
