<svg width="32" height="32" viewBox="0 0 32 32" fill="none" xmlns="http://www.w3.org/2000/svg">
<path d="M18.9 21.9001H13.1C11.4 21.9001 10.1 20.6001 10.1 18.9001V13.1001C10.1 11.4001 11.4 10.1001 13.1 10.1001H18.9C20.6 10.1001 21.9 11.4001 21.9 13.1001V18.9001C21.9 20.5001 20.6 21.9001 18.9 21.9001ZM13.1 12.1001C12.5 12.1001 12.1 12.5001 12.1 13.1001V18.9001C12.1 19.5001 12.5 19.9001 13.1 19.9001H18.9C19.5 19.9001 19.9 19.5001 19.9 18.9001V13.1001C19.9 12.5001 19.5 12.1001 18.9 12.1001H13.1Z" fill="#343434"/>
<path d="M6 13.9C5.4 13.9 5 13.5 5 12.9V8C5 6.3 6.4 5 8 5H12.8C13.4 5 13.8 5.4 13.8 6C13.8 6.6 13.4 7 12.8 7H8.1C7.5 7 7 7.5 7 8V12.8C7 13.4 6.6 13.9 6 13.9Z" fill="#343434"/>
<path d="M26 13.9C25.4 13.9 25 13.5 25 12.9V8C25 7.4 24.5 7 24 7H19.2C18.6 7 18.2 6.6 18.2 6C18.2 5.4 18.6 5 19.2 5H24C25.7 5 27 6.4 27 8V12.8C27 13.4 26.6 13.9 26 13.9Z" fill="#343434"/>
<path d="M24 27.0002H19.2C18.6 27.0002 18.2 26.6002 18.2 26.0002C18.2 25.4002 18.6 25.0002 19.2 25.0002H24C24.6 25.0002 25 24.5002 25 24.0002V19.2002C25 18.6002 25.4 18.2002 26 18.2002C26.6 18.2002 27 18.6002 27 19.2002V24.0002C27 25.6002 25.7 27.0002 24 27.0002Z" fill="#343434"/>
<path d="M12.9 27.0002H8.09998C6.39998 27.0002 5.09998 25.6002 5.09998 24.0002V19.2002C5.09998 18.6002 5.49998 18.2002 6.09998 18.2002C6.69998 18.2002 7.09998 18.6002 7.09998 19.2002V24.0002C7.09998 24.6002 7.59998 25.0002 8.09998 25.0002H12.9C13.5 25.0002 13.9 25.4002 13.9 26.0002C13.9 26.6002 13.4 27.0002 12.9 27.0002Z" fill="#343434"/>
</svg>
