<svg width="32" height="32" viewBox="0 0 32 32" fill="none" xmlns="http://www.w3.org/2000/svg">
<path d="M8.6001 11.6001V20.3001C8.6001 22.0001 9.9001 23.3001 11.6001 23.3001H20.3001C22.0001 23.3001 23.3001 22.0001 23.3001 20.3001V11.6001C23.3001 9.9001 22.0001 8.6001 20.3001 8.6001H11.6001C10.0001 8.6001 8.6001 10.0001 8.6001 11.6001ZM21.4001 11.6001V20.3001C21.4001 20.9001 21.0001 21.3001 20.4001 21.3001H11.7001C11.1001 21.3001 10.7001 20.9001 10.7001 20.3001V11.6001C10.7001 11.0001 11.1001 10.6001 11.7001 10.6001H20.4001C20.9001 10.6001 21.4001 11.1001 21.4001 11.6001Z" fill="black"/>
<path d="M3 12.9C3.6 12.9 4 12.5 4 11.9V5.7C4 4.7 4.7 4 5.7 4H12C12.6 4 13 3.6 13 3C13 2.4 12.6 2 12 2H5.7C3.6 2 2 3.6 2 5.7V12C2 12.5 2.4 12.9 3 12.9Z" fill="black"/>
<path d="M26.3001 2H20.1001C19.5001 2 19.1001 2.4 19.1001 3C19.1001 3.6 19.5001 4 20.1001 4H26.3001C27.3001 4 28.0001 4.7 28.0001 5.7V12C28.0001 12.6 28.4001 13 29.0001 13C29.6001 13 30.0001 12.6 30.0001 12V5.7C30.0001 3.6 28.4001 2 26.3001 2Z" fill="black"/>
<path d="M29.0001 19.1001C28.4001 19.1001 28.0001 19.5001 28.0001 20.1001V26.3001C28.0001 27.2001 27.3001 28.0001 26.3001 28.0001H20.1001C19.5001 28.0001 19.1001 28.4001 19.1001 29.0001C19.1001 29.6001 19.5001 30.0001 20.1001 30.0001H26.3001C28.3001 30.0001 30.0001 28.4001 30.0001 26.3001V20.1001C30.0001 19.5001 29.6001 19.1001 29.0001 19.1001Z" fill="black"/>
<path d="M11.9 28.0001H5.7C4.7 28.0001 4 27.3001 4 26.3001V20.1001C4 19.5001 3.6 19.1001 3 19.1001C2.4 19.1001 2 19.5001 2 20.1001V26.3001C2 28.3001 3.6 30.0001 5.7 30.0001H12C12.6 30.0001 13 29.6001 13 29.0001C13 28.4001 12.5 28.0001 11.9 28.0001Z" fill="black"/>
</svg>
