<svg width="32" height="32" viewBox="0 0 32 32" fill="none" xmlns="http://www.w3.org/2000/svg">
<path d="M15.7 4C9.09995 4 3.69995 9.4 3.69995 16C3.69995 22.6 9.09995 28 15.7 28C22.3 28 27.7 22.6 27.7 16C27.7 9.4 22.3 4 15.7 4ZM15.7 26C10.2 26 5.69995 21.5 5.69995 16C5.69995 10.5 10.2 6 15.7 6C21.2 6 25.7 10.5 25.7 16C25.7 21.5 21.2 26 15.7 26Z" fill="black"/>
<path d="M15.4 21C15 21 14.7 21.1 14.4 21.4C14.1 21.7 14 22 14 22.4C14 22.8 14.1 23.1 14.4 23.4C14.7 23.7 15 23.8 15.4 23.8C15.8 23.8 16.1 23.7 16.4 23.4C16.7 23.1 16.8 22.8 16.8 22.4C16.8 22 16.7 21.7 16.4 21.4C16.1 21.1 15.8 21 15.4 21Z" fill="black"/>
<path d="M15.7999 8.6001C15.0999 8.6001 14.3999 8.7001 13.7999 9.0001C13.1999 9.3001 12.6999 9.6001 12.2999 9.9001C11.8999 10.2001 11.6999 10.5001 11.3999 10.9001C11.0999 11.3001 10.9999 11.6001 10.9999 11.7001C10.9999 11.8001 10.8999 12.0001 10.8999 12.1001L12.7999 12.8001L12.8999 12.6001C12.8999 12.4001 12.9999 12.3001 13.1999 12.1001C13.3999 11.9001 13.4999 11.7001 13.6999 11.5001C13.8999 11.3001 14.1999 11.1001 14.5999 11.0001C14.9999 10.9001 15.3999 10.8001 15.7999 10.8001C16.4999 10.8001 17.0999 11.0001 17.4999 11.4001C17.8999 11.8001 18.1999 12.3001 18.1999 12.9001C18.1999 13.4001 18.0999 13.8001 17.7999 14.2001C17.4999 14.6001 17.1999 14.9001 16.8999 15.2001C16.4999 15.5001 16.1999 15.8001 15.7999 16.1001C15.3999 16.4001 15.0999 16.8001 14.8999 17.3001C14.6999 17.8001 14.4999 18.3001 14.4999 18.9001C14.4999 19.2001 14.4999 19.5001 14.5999 19.8001H16.4999V19.6001C16.4999 19.0001 16.5999 18.5001 16.8999 18.1001C17.1999 17.7001 17.4999 17.3001 17.8999 17.0001C18.2999 16.7001 18.6999 16.4001 19.0999 16.1001C19.4999 15.8001 19.7999 15.3001 20.0999 14.8001C20.3999 14.3001 20.4999 13.6001 20.4999 12.8001C20.4999 11.7001 20.0999 10.8001 19.1999 10.0001C18.2999 9.0001 17.0999 8.6001 15.7999 8.6001Z" fill="black"/>
</svg>
