<svg width="32" height="32" viewBox="0 0 32 32" fill="none" xmlns="http://www.w3.org/2000/svg">
<path d="M15.7 4C9.10001 4 3.70001 9.4 3.70001 16C3.70001 22.6 9.10001 28 15.7 28C22.3 28 27.7 22.6 27.7 16C27.7 9.4 22.3 4 15.7 4ZM15.7 26C10.2 26 5.70001 21.5 5.70001 16C5.70001 10.5 10.2 6 15.7 6C21.2 6 25.7 10.5 25.7 16C25.7 21.5 21.2 26 15.7 26Z" fill="#343434"/>
<path d="M15.4 21C15 21 14.7 21.1 14.4 21.4C14.1 21.7 14 22 14 22.4C14 22.8 14.1 23.1 14.4 23.4C14.7 23.7 15 23.8 15.4 23.8C15.8 23.8 16.1 23.7 16.4 23.4C16.7 23.1 16.8 22.8 16.8 22.4C16.8 22 16.7 21.7 16.4 21.4C16.1 21.1 15.8 21 15.4 21Z" fill="#343434"/>
<path d="M15.8 8.6001C15.1 8.6001 14.4 8.7001 13.8 9.0001C13.2 9.3001 12.7 9.6001 12.3 9.9001C11.9 10.2001 11.7 10.5001 11.4 10.9001C11.1 11.3001 11 11.6001 11 11.7001C11 11.8001 10.9 12.0001 10.9 12.1001L12.8 12.8001L12.9 12.6001C12.9 12.4001 13 12.3001 13.2 12.1001C13.4 11.9001 13.5 11.7001 13.7 11.5001C13.9 11.3001 14.2 11.1001 14.6 11.0001C15 10.9001 15.4 10.8001 15.8 10.8001C16.5 10.8001 17.1 11.0001 17.5 11.4001C17.9 11.8001 18.2 12.3001 18.2 12.9001C18.2 13.4001 18.1 13.8001 17.8 14.2001C17.5 14.6001 17.2 14.9001 16.9 15.2001C16.5 15.5001 16.2 15.8001 15.8 16.1001C15.4 16.4001 15.1 16.8001 14.9 17.3001C14.7 17.8001 14.5 18.3001 14.5 18.9001C14.5 19.2001 14.5 19.5001 14.6 19.8001H16.5V19.6001C16.5 19.0001 16.6 18.5001 16.9 18.1001C17.2 17.7001 17.5 17.3001 17.9 17.0001C18.3 16.7001 18.7 16.4001 19.1 16.1001C19.5 15.8001 19.8 15.3001 20.1 14.8001C20.4 14.3001 20.5 13.6001 20.5 12.8001C20.5 11.7001 20.1 10.8001 19.2 10.0001C18.3 9.0001 17.1 8.6001 15.8 8.6001Z" fill="#343434"/>
</svg>
