<svg width="32" height="32" viewBox="0 0 32 32" fill="none" xmlns="http://www.w3.org/2000/svg">
<path d="M16 5C9.9 5 5 9.9 5 16C5 22.1 9.9 27 16 27C22.1 27 27 22.1 27 16C27 9.9 22.1 5 16 5ZM16 25C11 25 7 21 7 16C7 11 11 7 16 7C21 7 25 11 25 16C25 21 21 25 16 25Z" fill="black"/>
<path d="M15.8 20.3999C15.5 20.3999 15.2 20.4999 15 20.7999C14.8 21.0999 14.6 21.2999 14.6 21.5999C14.6 21.8999 14.7 22.1999 15 22.3999C15.3 22.5999 15.5 22.7999 15.8 22.7999C16.1 22.7999 16.4 22.6999 16.6 22.3999C16.8 22.1999 17 21.8999 17 21.5999C17 21.2999 16.9 20.9999 16.6 20.7999C16.4 20.5999 16.1 20.3999 15.8 20.3999Z" fill="black"/>
<path d="M16.1 9.6001C15.5 9.6001 14.9 9.7001 14.3 9.9001C13.8 10.1001 13.4 10.4001 13.1 10.6001C12.8 10.9001 12.6 11.2001 12.4 11.5001C12.1 12.0001 12 12.2001 12 12.3001C12 12.4001 11.9 12.5001 11.9 12.6001L13.5 13.2001L13.6 13.0001C13.6 12.9001 13.7 12.7001 13.8 12.5001C13.9 12.3001 14.1 12.1001 14.2 12.0001C14.3 11.9001 14.6 11.7001 15 11.5001C15.3 11.4001 15.7 11.3001 16.1 11.3001C16.7 11.3001 17.2 11.5001 17.6 11.8001C18 12.2001 18.2 12.6001 18.2 13.1001C18.2 13.5001 18.1 13.9001 17.9 14.2001C17.7 14.5001 17.4 14.8001 17.1 15.1001C16.8 15.4001 16.5 15.6001 16.1 15.9001C15.8 16.2001 15.5 16.5001 15.3 16.9001C15.1 17.3001 15 17.8001 15 18.3001C15 18.5001 15 18.8001 15.1 19.1001H16.7V18.9001C16.7 18.4001 16.8 17.9001 17.1 17.6001C17.3 17.2001 17.6 16.9001 18 16.7001C18.4 16.5001 18.7 16.2001 19.1 15.9001C19.5 15.6001 19.7 15.2001 20 14.8001C20.2 14.3001 20.4 13.7001 20.4 13.1001C20.4 12.1001 20 11.3001 19.2 10.6001C18.3 10.0001 17.3 9.6001 16.1 9.6001Z" fill="black"/>
</svg>
