<svg width="32" height="32" viewBox="0 0 32 32" fill="none" xmlns="http://www.w3.org/2000/svg">
<path d="M28.4 14.3001C28.2 13.8001 27.6 13.6001 27.1 13.9001L26.4 14.3001C25.7 11.8001 23.9 9.6001 21.6 8.3001C21.5 6.2001 19.7 4.6001 17.6 4.6001C15.7 4.6001 14.1 6.0001 13.7 7.8001C13.3 7.8001 13 8.0001 12.7 8.1001C10.7 7.1001 8.4 7.5001 8.3 7.5001C8 7.6001 7.8 7.8001 7.6 8.0001C7.5 8.2001 7.5 8.5001 7.6 8.8001L8.4 11.3001C7.9 11.9001 7.4 12.7001 6.9 13.5001H4.5C3.9 13.5001 3.5 13.9001 3.5 14.5001V18.5001C3.5 18.8001 3.7 19.1001 3.9 19.3001L11.5 24.3001L12.5 26.9001C12.6 27.3001 13 27.5001 13.4 27.5001H15.4C15.8 27.5001 16.1 27.3001 16.3 26.9001L17.1 25.4001L18.7 25.2001L19.6 27.0001C19.8 27.3001 20.1 27.6001 20.5 27.6001H22.5C23 27.6001 23.4 27.3001 23.5 26.8001L24.4 22.1001C25.9 20.4001 26.7 18.4001 26.6 16.4001C26.7 16.4001 27.9 15.8001 27.9 15.8001C28.4 15.4001 28.6 14.8001 28.4 14.3001ZM17.5 6.5001C18.6 6.5001 19.5 7.4001 19.5 8.5001C19.5 8.9001 19.4 9.3001 19.2 9.6001C18.1 9.2001 16.9 9.2001 15.8 9.6001C15.6 9.3001 15.5 8.9001 15.5 8.5001C15.5 7.4001 16.4 6.5001 17.5 6.5001ZM22.8 20.8001C22.7 20.9001 22.6 21.1001 22.5 21.3001L21.7 25.5001H21.1L20.2 23.7001C20 23.3001 19.6 23.1001 19.2 23.2001L16.4 23.6001C16.1 23.6001 15.8 23.8001 15.6 24.1001L14.9 25.5001H14.2L13.3 23.2001C13.2 23.0001 13.1 22.8001 12.9 22.7001L12.4 22.4001C12.9 22.0001 13.2 21.5001 13.5 20.8001C13.7 20.3001 13.4 19.7001 12.9 19.5001C12.4 19.3001 11.8 19.6001 11.6 20.1001C11.3 21.0001 10.9 21.2001 10.1 20.9001L5.5 17.9001V15.4001H7.5C7.9 15.4001 8.2 15.2001 8.4 14.8001C9 13.6001 9.6 12.7001 10.2 12.1001C10.5 11.8001 10.6 11.5001 10.4 11.1001L9.9 9.4001C10.6 9.4001 11.4 9.6001 12.1 10.1001C12.4 10.3001 12.8 10.3001 13.2 10.1001C13.4 10.0001 13.6 9.9001 13.8 9.8001C13.9 10.1001 14 10.3001 14.2 10.5001C14.1 10.6001 14 10.6001 14 10.7001C13.6 11.1001 13.5 11.7001 13.9 12.1001C14.3 12.5001 14.9 12.6001 15.3 12.2001C16.9 10.8001 18.3 10.8001 20 12.2001C20.2 12.4001 20.4 12.4001 20.6 12.4001C20.9 12.4001 21.2 12.3001 21.4 12.0001C21.7 11.6001 21.7 10.9001 21.3 10.6001C21.2 10.5001 21.1 10.5001 21.1 10.4001C21.2 10.3001 21.2 10.2001 21.3 10.1001C23.1 11.3001 24.5 13.2001 24.8 15.2001C24.8 16.8001 24.7 18.9001 22.8 20.8001Z" fill="black"/>
<path d="M11.5 15.5C12.0523 15.5 12.5 15.0523 12.5 14.5C12.5 13.9477 12.0523 13.5 11.5 13.5C10.9477 13.5 10.5 13.9477 10.5 14.5C10.5 15.0523 10.9477 15.5 11.5 15.5Z" fill="black"/>
</svg>
