<svg width="32" height="32" viewBox="0 0 32 32" fill="none" xmlns="http://www.w3.org/2000/svg">
<path d="M31 16.2C31 16.1 31 16.1 31 16C31 15.9 31 15.9 31 15.8C31 15.7 31 15.7 31 15.6C31 15.6 31 15.6 31 15.5C31 15.5 31 15.4 30.9 15.4L30.8 15.3C30.8 15.3 30.8 15.3 30.7 15.2L30.6 15.1L30.5 15L2.5 1H2.4C2.3 1.1 2.2 1 2.1 1C2.1 1 2 1 1.9 1H1.8C1.7 1 1.7 1 1.6 1.1H1.5C1.4 1.1 1.4 1.2 1.4 1.2C1.4 1.3 1.3 1.3 1.3 1.4C1.3 1.4 1.3 1.4 1.3 1.5V1.6C1.3 1.7 1.3 1.7 1.2 1.8C1 1.9 1 2 1 2.1C1 2.2 1 2.2 1 2.3C1 2.4 1 2.4 1.1 2.5V2.6L9.7 16L1.2 29.5V29.6C1.2 29.7 1.1 29.7 1.1 29.8C1.1 29.9 1.1 29.9 1.1 30C1.1 30.1 1.1 30.1 1.1 30.2C1.1 30.3 1.1 30.3 1.2 30.4V30.5C1.2 30.5 1.2 30.5 1.3 30.6C1.3 30.6 1.3 30.7 1.4 30.7C1.5 30.8 1.5 30.9 1.6 30.9C1.7 30.9 1.7 31 1.8 31C1.8 31 1.8 31 1.9 31C2 31 2 31 2.1 31H2.2C2.3 31 2.5 31 2.6 30.9L30.6 16.9C30.7 16.9 30.7 16.8 30.8 16.8C30.8 16.8 30.8 16.8 30.8 16.7C30.8 16.7 30.9 16.6 30.9 16.5C30.9 16.5 30.9 16.5 30.9 16.4C30.9 16.3 31 16.2 31 16.2ZM11.5 15L4.8 4.5L25.8 15H11.5ZM11.5 17H25.8L4.8 27.5L11.5 17Z" fill="black"/>
</svg>
