<svg width="32" height="32" viewBox="0 0 32 32" fill="none" xmlns="http://www.w3.org/2000/svg">
<path d="M27.4 15.1001L7.39996 5.10015C7.09996 4.90015 6.59996 5.00015 6.29996 5.30015C5.99996 5.60015 5.89996 6.10015 6.09996 6.50015L11.8 16.0001L6.09996 25.5001C5.89996 25.9001 5.89996 26.4001 6.19996 26.7001C6.49996 26.9001 6.69996 27.0001 6.99996 27.0001C7.19996 27.0001 7.29996 27.0001 7.39996 26.9001L27.4 16.9001C27.7 16.7001 28 16.4001 28 16.0001C28 15.6001 27.8 15.3001 27.4 15.1001ZM9.59996 8.40015L22.8 15.0001H13.6L9.59996 8.40015ZM13.6 17.0001H22.8L9.59996 23.6001L13.6 17.0001Z" fill="#343434"/>
</svg>
