<svg width="32" height="32" viewBox="0 0 32 32" fill="none" xmlns="http://www.w3.org/2000/svg">
<path d="M12.6 12.6C11.7 13.5 11.2 14.7 11.2 16C11.2 17.3 11.7 18.5 12.6 19.4C13.5 20.3 14.7 20.8 16 20.8C17.3 20.8 18.5 20.3 19.4 19.4C20.3 18.5 20.8 17.3 20.8 16C20.8 14.7 20.3 13.5 19.4 12.6C17.5 10.8 14.4 10.8 12.6 12.6ZM17.9 18C16.9 19 15 19 14 18C13.5 17.5 13.2 16.8 13.2 16C13.2 15.3 13.5 14.6 14 14C14.5 13.5 15.3 13.2 16 13.2C16.7 13.2 17.4 13.5 18 14C18.5 14.5 18.8 15.2 18.8 16C18.7 16.7 18.4 17.4 17.9 18Z" fill="#343434"/>
<path d="M29.5 12.3H25.5C25.4 12.2 25.4 12 25.3 11.9L28.1 9.1C28.3 8.9 28.4 8.7 28.4 8.4C28.4 8.1 28.3 7.9 28.1 7.7L24.3 3.9C23.9 3.5 23.3 3.5 22.9 3.9L20 6.7C19.9 6.6 19.7 6.6 19.6 6.5V2.5C19.6 1.9 19.2 1.5 18.6 1.5H13.2C12.6 1.5 12.2 1.9 12.2 2.5V6.5C12.1 6.6 11.9 6.6 11.8 6.7L9.00002 3.8C8.60002 3.4 8.00002 3.4 7.60002 3.8L3.80002 7.7C3.40002 8.1 3.40002 8.7 3.80002 9.1L6.60002 11.9C6.50002 12 6.50002 12.2 6.40002 12.3H2.40002C1.80002 12.3 1.40002 12.7 1.40002 13.3V18.7C1.40002 19.3 1.80002 19.7 2.40002 19.7H6.40002C6.50002 19.8 6.50002 20 6.60002 20.1L3.80002 22.9C3.40002 23.3 3.40002 23.9 3.80002 24.3L7.60002 28.1C8.00002 28.5 8.60002 28.5 9.00002 28.1L11.8 25.3C11.9 25.4 12.1 25.4 12.2 25.5V29.5C12.2 30.1 12.6 30.5 13.2 30.5H18.6C19.2 30.5 19.6 30.1 19.6 29.5V25.5C19.7 25.4 19.9 25.4 20 25.3L22.8 28.1C23.2 28.5 23.8 28.5 24.2 28.1L28 24.3C28.2 24.1 28.3 23.9 28.3 23.6C28.3 23.3 28.2 23.1 28 22.9L25.2 20.1C25.3 20 25.3 19.8 25.4 19.7H29.4C30 19.7 30.4 19.3 30.4 18.7V13.3C30.5 12.7 30 12.3 29.5 12.3ZM28.5 17.7H24.8C24.4 17.7 24 18 23.8 18.4C23.6 18.9 23.4 19.4 23.2 19.8C23 20.2 23.1 20.7 23.4 21L26 23.6L23.6 26L21 23.4C20.7 23.1 20.2 23 19.8 23.2C19.4 23.4 18.9 23.6 18.4 23.8C18 23.9 17.7 24.3 17.7 24.8V28.5H14.3V24.8C14.3 24.4 14 24 13.6 23.8C13.1 23.6 12.6 23.5 12.2 23.2C11.8 23 11.3 23.1 11 23.4L8.30002 26L5.90002 23.6L8.50002 21C8.80002 20.7 8.90002 20.2 8.70002 19.8C8.50002 19.4 8.30002 18.9 8.10002 18.4C8.00002 18 7.60002 17.7 7.10002 17.7H3.50002V14.3H7.20002C7.60002 14.3 8.00002 14 8.20002 13.6C8.40002 13.1 8.60002 12.6 8.80002 12.2C9.00002 11.8 8.90002 11.3 8.60002 11L5.90002 8.4L8.30002 6L11 8.6C11.3 8.9 11.8 9 12.2 8.8C12.6 8.6 13.1 8.4 13.6 8.2C14 8.1 14.3 7.7 14.3 7.2V3.5H17.7V7.2C17.7 7.6 18 8 18.4 8.2C18.9 8.4 19.4 8.6 19.8 8.8C20.2 9 20.6 8.9 21 8.6L23.6 6L26 8.4L23.4 11C23.1 11.3 23 11.8 23.2 12.2C23.4 12.6 23.6 13.1 23.8 13.6C23.9 14 24.3 14.3 24.8 14.3H28.5V17.7Z" fill="#343434"/>
</svg>
