<svg width="32" height="32" viewBox="0 0 32 32" fill="none" xmlns="http://www.w3.org/2000/svg">
<path d="M29 12.5H14C13.4 12.5 13 12.9 13 13.5C13 14.1 13.4 14.5 14 14.5H29C29.6 14.5 30 14.1 30 13.5C30 12.9 29.6 12.5 29 12.5Z" fill="#343434"/>
<path d="M9 7.5H29C29.6 7.5 30 7.1 30 6.5C30 5.9 29.6 5.5 29 5.5H9C8.4 5.5 8 5.9 8 6.5C8 7.1 8.4 7.5 9 7.5Z" fill="#343434"/>
<path d="M29 19.5H19C18.4 19.5 18 19.9 18 20.5C18 21.1 18.4 21.5 19 21.5H29C29.6 21.5 30 21.1 30 20.5C30 19.9 29.6 19.5 29 19.5Z" fill="#343434"/>
<path d="M10.5 20.6L9.4 21.7L8 23.1V10.5C8 9.9 7.6 9.5 7 9.5C6.4 9.5 6 9.9 6 10.5V23L4.7 21.6L3.7 20.6C3.3 20.2 2.7 20.2 2.3 20.6C1.9 21 1.9 21.6 2.3 22L3.3 23L6.3 26.2C6.5 26.4 6.7 26.5 7 26.5C7.3 26.5 7.5 26.4 7.7 26.2L10.8 23.1L11.9 22C12.3 21.6 12.3 21 11.9 20.6C11.5 20.2 10.9 20.2 10.5 20.6Z" fill="#343434"/>
</svg>
