<svg width="32" height="32" viewBox="0 0 32 32" fill="none" xmlns="http://www.w3.org/2000/svg">
<path d="M26.3 7.5002C26.2 7.0002 25.8 6.7002 25.3 6.7002H6.29997C5.79997 6.7002 5.39997 7.0002 5.29997 7.5002L2.29997 24.5002C2.19997 24.8002 2.29997 25.1002 2.49997 25.3002C2.69997 25.5002 2.99997 25.7002 3.29997 25.7002H28.3C28.6 25.7002 28.9 25.6002 29.1 25.3002C29.3 25.1002 29.4 24.8002 29.3 24.5002L26.3 7.5002ZM7.19997 8.7002H24.2L21.6 23.7002H4.59997L7.19997 8.7002ZM23.5 23.7002L25.3 13.5002L27.1 23.7002H23.5Z" fill="black"/>
<path d="M16.8999 17.0003V15.6003C16.8999 14.6003 16.0999 13.8003 15.0999 13.8003H13.6999C12.6999 13.8003 11.8999 14.6003 11.8999 15.6003V17.0003C11.8999 18.0003 12.6999 18.8003 13.6999 18.8003H15.0999C16.0999 18.9003 16.8999 18.1003 16.8999 17.0003ZM15.4999 17.0003C15.4999 17.2003 15.2999 17.4003 15.0999 17.4003H13.6999C13.4999 17.4003 13.2999 17.2003 13.2999 17.0003V15.6003C13.2999 15.4003 13.4999 15.2003 13.6999 15.2003H15.0999C15.2999 15.2003 15.4999 15.4003 15.4999 15.6003V17.0003Z" fill="black"/>
<path d="M10 15.2003C10.4 15.2003 10.7 14.9003 10.7 14.5003V13.3003C10.7 13.0003 10.9 12.7003 11.3 12.7003H12.5C12.9 12.7003 13.2 12.4003 13.2 12.0003C13.2 11.6003 12.9 11.3003 12.5 11.3003H11.3C10.2 11.3003 9.30005 12.2003 9.30005 13.3003V14.5003C9.30005 14.9003 9.70005 15.2003 10 15.2003Z" fill="black"/>
<path d="M17.4999 11.3003H16.2999C15.8999 11.3003 15.5999 11.6003 15.5999 12.0003C15.5999 12.4003 15.8999 12.7003 16.2999 12.7003H17.4999C17.7999 12.7003 18.0999 12.9003 18.0999 13.3003V14.5003C18.0999 14.9003 18.3999 15.2003 18.7999 15.2003C19.1999 15.2003 19.4999 14.9003 19.4999 14.5003V13.3003C19.3999 12.2003 18.4999 11.3003 17.4999 11.3003Z" fill="black"/>
<path d="M18.7 17.5C18.3 17.5 18 17.8 18 18.2V19.4C18 19.7 17.8 20 17.4 20H16.2C15.8 20 15.5 20.3 15.5 20.7C15.5 21.1 15.8 21.4 16.2 21.4H17.4C18.5 21.4 19.4 20.5 19.4 19.4V18.2C19.4 17.8 19.1 17.5 18.7 17.5Z" fill="black"/>
<path d="M12.5 20H11.3C11 20 10.7 19.8 10.7 19.4V18.2C10.7 17.8 10.4 17.5 10 17.5C9.60005 17.5 9.30005 17.8 9.30005 18.2V19.4C9.30005 20.5 10.2 21.4 11.3 21.4H12.5C12.9 21.4 13.2 21.1 13.2 20.7C13.2 20.3 12.9 20 12.5 20Z" fill="black"/>
</svg>
