<svg width="32" height="32" viewBox="0 0 32 32" fill="none" xmlns="http://www.w3.org/2000/svg">
<path d="M18 13.7999H18.7001C19.0001 13.7999 19.3 13.9999 19.3 14.3999V15.0999C19.3 15.4999 19.6 15.7999 20 15.7999C20.4 15.7999 20.7001 15.4999 20.7001 15.0999V14.3999C20.7001 13.2999 19.8001 12.3999 18.7001 12.3999H18C17.6 12.3999 17.3 12.6999 17.3 13.0999C17.3 13.4999 17.6 13.7999 18 13.7999Z" fill="#343434"/>
<path d="M13.3 16.3001V18.0001C13.3 19.0001 14.1 19.8001 15.1 19.8001H16.8C17.8 19.8001 18.6 19.0001 18.6 18.0001V16.3001C18.6 15.3001 17.8 14.5001 16.8 14.5001H15.1C14.1 14.4001 13.3 15.2001 13.3 16.3001ZM14.7 16.3001C14.7 16.1001 14.9 15.9001 15.1 15.9001H16.8C17 15.9001 17.2 16.1001 17.2 16.3001V18.0001C17.2 18.2001 17 18.4001 16.8 18.4001H15.1C14.9 18.4001 14.7 18.2001 14.7 18.0001V16.3001Z" fill="#343434"/>
<path d="M13.3 21.7999H14C14.4 21.7999 14.7 21.4999 14.7 21.0999C14.7 20.6999 14.4 20.3999 14 20.3999H13.3C13 20.3999 12.7 20.1999 12.7 19.7999V19.0999C12.7 18.6999 12.4 18.3999 12 18.3999C11.6 18.3999 11.3 18.6999 11.3 19.0999V19.7999C11.3 20.8999 12.2 21.7999 13.3 21.7999Z" fill="#343434"/>
<path d="M12 15.7999C12.4 15.7999 12.7 15.4999 12.7 15.0999V14.3999C12.7 14.0999 12.9 13.7999 13.3 13.7999H14C14.4 13.7999 14.7 13.4999 14.7 13.0999C14.7 12.6999 14.4 12.3999 14 12.3999H13.3C12.2 12.3999 11.3 13.2999 11.3 14.3999V15.0999C11.3 15.4999 11.6 15.7999 12 15.7999Z" fill="#343434"/>
<path d="M20 18.3999C19.6 18.3999 19.3 18.6999 19.3 19.0999V19.7999C19.3 20.0999 19.1001 20.3999 18.7001 20.3999H18C17.6 20.3999 17.3 20.6999 17.3 21.0999C17.3 21.4999 17.6 21.7999 18 21.7999H18.7001C19.8001 21.7999 20.7001 20.8999 20.7001 19.7999V19.0999C20.7001 18.6999 20.4 18.3999 20 18.3999Z" fill="#343434"/>
<path d="M24.4 5.2001C24.3 5.1001 18.4 2.2001 18.4 2.2001C18.2 2.1001 17.9 2.1001 17.7 2.1001C17.7 2.1001 8.2 5.0001 7.7 5.1001C7.3 5.3001 7 5.7001 7 6.1001V28.1001C7 28.7001 7.4 29.1001 8 29.1001H24C24.6 29.1001 25 28.7001 25 28.1001V6.1001C25 5.7001 24.8 5.4001 24.4 5.2001ZM17.9 4.2001L19.8 5.1001H14.8L17.9 4.2001ZM23 27.1001H9V7.1001H23V27.1001Z" fill="#343434"/>
</svg>
