<svg width="32" height="32" viewBox="0 0 32 32" fill="none" xmlns="http://www.w3.org/2000/svg">
<path d="M26.3 7.5002C26.2 7.0002 25.8 6.7002 25.3 6.7002H6.29997C5.79997 6.7002 5.39997 7.0002 5.29997 7.5002L2.29997 24.5002C2.19997 24.8002 2.29997 25.1002 2.49997 25.3002C2.69997 25.5002 2.99997 25.7002 3.29997 25.7002H28.3C28.6 25.7002 28.9 25.6002 29.1 25.3002C29.3 25.1002 29.4 24.8002 29.3 24.5002L26.3 7.5002ZM7.19997 8.7002H24.2L21.6 23.7002H4.59997L7.19997 8.7002ZM23.5 23.7002L25.3 13.5002L27.1 23.7002H23.5Z" fill="#343434"/>
<path d="M16.9 17.0003V15.6003C16.9 14.6003 16.1 13.8003 15.1 13.8003H13.7C12.7 13.8003 11.9 14.6003 11.9 15.6003V17.0003C11.9 18.0003 12.7 18.8003 13.7 18.8003H15.1C16.1 18.9003 16.9 18.1003 16.9 17.0003ZM15.5 17.0003C15.5 17.2003 15.3 17.4003 15.1 17.4003H13.7C13.5 17.4003 13.3 17.2003 13.3 17.0003V15.6003C13.3 15.4003 13.5 15.2003 13.7 15.2003H15.1C15.3 15.2003 15.5 15.4003 15.5 15.6003V17.0003Z" fill="#343434"/>
<path d="M9.99993 15.2003C10.3999 15.2003 10.6999 14.9003 10.6999 14.5003V13.3003C10.6999 13.0003 10.8999 12.7003 11.2999 12.7003H12.4999C12.8999 12.7003 13.1999 12.4003 13.1999 12.0003C13.1999 11.6003 12.8999 11.3003 12.4999 11.3003H11.2999C10.1999 11.3003 9.29993 12.2003 9.29993 13.3003V14.5003C9.29993 14.9003 9.69993 15.2003 9.99993 15.2003Z" fill="#343434"/>
<path d="M17.5 11.3003H16.3C15.9 11.3003 15.6 11.6003 15.6 12.0003C15.6 12.4003 15.9 12.7003 16.3 12.7003H17.5C17.8 12.7003 18.1 12.9003 18.1 13.3003V14.5003C18.1 14.9003 18.4 15.2003 18.8 15.2003C19.2 15.2003 19.5 14.9003 19.5 14.5003V13.3003C19.4 12.2003 18.5 11.3003 17.5 11.3003Z" fill="#343434"/>
<path d="M18.7 17.5C18.3 17.5 18 17.8 18 18.2V19.4C18 19.7 17.8 20 17.4 20H16.2C15.8 20 15.5 20.3 15.5 20.7C15.5 21.1 15.8 21.4 16.2 21.4H17.4C18.5 21.4 19.4 20.5 19.4 19.4V18.2C19.4 17.8 19.1 17.5 18.7 17.5Z" fill="#343434"/>
<path d="M12.4999 20H11.2999C10.9999 20 10.6999 19.8 10.6999 19.4V18.2C10.6999 17.8 10.3999 17.5 9.99993 17.5C9.59993 17.5 9.29993 17.8 9.29993 18.2V19.4C9.29993 20.5 10.1999 21.4 11.2999 21.4H12.4999C12.8999 21.4 13.1999 21.1 13.1999 20.7C13.1999 20.3 12.8999 20 12.4999 20Z" fill="#343434"/>
</svg>
