<svg width="32" height="32" viewBox="0 0 32 32" fill="none" xmlns="http://www.w3.org/2000/svg">
<path d="M16 26.2998C16.6 26.2998 17 25.8998 17 25.2998V14.2998C17 13.6998 16.6 13.2998 16 13.2998C15.4 13.2998 15 13.6998 15 14.2998V25.2998C15 25.7998 15.4 26.2998 16 26.2998Z" fill="black"/>
<path d="M20 24.4997C20.6 24.4997 21 24.0997 21 23.4997V15.1997C21 14.5997 20.6 14.1997 20 14.1997C19.4 14.1997 19 14.5997 19 15.1997V23.4997C19 23.9997 19.4 24.4997 20 24.4997Z" fill="black"/>
<path d="M12 24.4997C12.6 24.4997 13 24.0997 13 23.4997V15.1997C13 14.5997 12.6 14.1997 12 14.1997C11.4 14.1997 11 14.5997 11 15.1997V23.4997C11 23.9997 11.4 24.4997 12 24.4997Z" fill="black"/>
<path d="M27 8.2998C27 6.5998 25.7 5.2998 24 5.2998H20V3.2998C20 2.6998 19.6 2.2998 19 2.2998H13C12.4 2.2998 12 2.6998 12 3.2998V5.2998H8C6.3 5.2998 5 6.5998 5 8.2998V11.2998H7V26.2998C7 28.4998 8.8 30.2998 11 30.2998H21C23.2 30.2998 25 28.4998 25 26.2998V11.2998H27V8.2998ZM14 4.2998H18V5.2998H14V4.2998ZM23 26.2998C23 27.3998 22.1 28.2998 21 28.2998H11C9.9 28.2998 9 27.3998 9 26.2998V11.2998H23V26.2998ZM25 9.2998H7V8.2998C7 7.6998 7.4 7.2998 8 7.2998H24C24.6 7.2998 25 7.6998 25 8.2998V9.2998Z" fill="black"/>
</svg>
