<svg width="32" height="32" viewBox="0 0 32 32" fill="none" xmlns="http://www.w3.org/2000/svg">
<path d="M16 27C16.6 27 17 26.6 17 26V12C17 11.4 16.6 11 16 11C15.4 11 15 11.4 15 12V26C15 26.6 15.4 27 16 27Z" fill="black"/>
<path d="M20 25C20.6 25 21 24.6 21 24V13C21 12.4 20.6 12 20 12C19.4 12 19 12.4 19 13V24C19 24.6 19.4 25 20 25Z" fill="black"/>
<path d="M12 25C12.6 25 13 24.6 13 24V13C13 12.4 12.6 12 12 12C11.4 12 11 12.4 11 13V24C11 24.6 11.4 25 12 25Z" fill="black"/>
<path d="M28 7C28 5.3 26.7 4 25 4H22V2C22 1.4 21.6 1 21 1H11C10.4 1 10 1.4 10 2V4H7C5.3 4 4 5.3 4 7V9H6V27C6 29.2 7.8 31 10 31H22C24.2 31 26 29.2 26 27V9H28V7ZM12 3H20V4H12V3ZM24 27C24 28.1 23.1 29 22 29H10C8.9 29 8 28.1 8 27V9H24V27ZM6 7C6 6.4 6.4 6 7 6H25C25.6 6 26 6.4 26 7H6Z" fill="black"/>
</svg>
