<svg width="32" height="32" viewBox="0 0 32 32" fill="none" xmlns="http://www.w3.org/2000/svg">
<path d="M19 23C19.6 23 20 22.6 20 22V14C20 13.4 19.6 13 19 13C18.4 13 18 13.4 18 14V22C18 22.6 18.4 23 19 23Z" fill="#343434"/>
<path d="M13 23C13.6 23 14 22.6 14 22V14C14 13.4 13.6 13 13 13C12.4 13 12 13.4 12 14V22C12 22.6 12.4 23 13 23Z" fill="#343434"/>
<path d="M27 8H25H21V5C21 4.4 20.6 4 20 4H12C11.4 4 11 4.4 11 5V8H7H5C4.4 8 4 8.4 4 9C4 9.6 4.4 10 5 10H7V24C7 26.2 8.8 28 11 28H21C23.2 28 25 26.2 25 24V10H27C27.6 10 28 9.6 28 9C28 8.4 27.6 8 27 8ZM13 6H19V8H13V6ZM23 24C23 25.1 22.1 26 21 26H11C9.9 26 9 25.1 9 24V10H23V24Z" fill="#343434"/>
</svg>
