<svg width="32" height="32" viewBox="0 0 32 32" fill="none" xmlns="http://www.w3.org/2000/svg">
<path d="M10.4 27.8001C21.7 27.8001 27.9 18.4001 27.9 10.3001C27.9 10.1001 27.9 9.80006 27.9 9.50006C29.1 8.60006 30.2 7.50006 30.9 6.30006C29.8 6.80006 28.6 7.20006 27.4 7.30006C28.6 6.40006 29.6 5.20006 30 3.80006C28.8 4.60006 27.5 5.00006 26.1 5.30006C23.8 2.80006 19.9 2.70006 17.4 5.10006C15.8 6.60006 15.1 8.80006 15.7 11.0001C10.7 10.7001 6.1 8.30006 3 4.50006C1.4 7.30006 2.2 10.9001 5 12.8001C4 12.8001 3 12.5001 2.2 12.0001C2.2 12.0001 2.2 12.0001 2.2 12.1001C2.2 15.0001 4.3 17.5001 7.1 18.1001C6.2 18.3001 5.3 18.3001 4.4 18.2001C5.2 20.7001 7.6 22.4001 10.2 22.4001C7.8 24.2001 5.1 25.0001 2.4 25.0001C1.9 25.0001 1.4 25.0001 1 24.9001C3.7 26.8001 7 27.8001 10.4 27.8001Z" fill="#343434"/>
</svg>
