<svg width="32" height="32" viewBox="0 0 32 32" fill="none" xmlns="http://www.w3.org/2000/svg">
<path d="M23 4.5H9C8.4 4.5 8 4.9 8 5.5C8 6.1 8.4 6.5 9 6.5H23C23.6 6.5 24 6.1 24 5.5C24 4.9 23.6 4.5 23 4.5Z" fill="#343434"/>
<path d="M16.7 8.2999C16.6 8.1999 16.5 8.0999 16.4 8.0999C16.2 7.9999 15.9 7.9999 15.6 8.0999C15.5 8.1999 15.4 8.1999 15.3 8.2999L10.1 13.4999C9.69999 13.8999 9.69999 14.4999 10.1 14.8999C10.3 15.0999 10.6 15.1999 10.8 15.1999C11 15.1999 11.3 15.0999 11.5 14.8999L15 11.3999V26.4999C15 27.0999 15.4 27.4999 16 27.4999C16.6 27.4999 17 27.0999 17 26.4999V11.3999L20.5 14.8999C20.7 15.0999 21 15.1999 21.2 15.1999C21.4 15.1999 21.7 15.0999 21.9 14.8999C22.3 14.4999 22.3 13.8999 21.9 13.4999L16.7 8.2999Z" fill="#343434"/>
</svg>
