<svg width="32" height="32" viewBox="0 0 32 32" fill="none" xmlns="http://www.w3.org/2000/svg">
<path d="M16.7 6.92437C16.5 6.72609 16.2 6.62695 16 6.62695C15.8 6.62695 15.5 6.72609 15.3 6.92437L7.3 14.8554C6.9 15.3511 6.9 15.9459 7.3 16.3425C7.7 16.739 8.3 16.739 8.7 16.3425L15 10.0968V28.6356C15 29.2304 15.4 29.627 16 29.627C16.6 29.627 17 29.2304 17 28.6356V9.99764L23.3 16.2433C23.7 16.6399 24.3 16.6399 24.7 16.2433C25.1 15.8468 25.1 15.252 24.7 14.8554L16.7 6.92437Z" fill="#343434"/>
<path d="M7 5H25C25.6 5 26 4.6 26 4C26 3.4 25.6 3 25 3H7C6.4 3 6 3.4 6 4C6 4.6 6.4 5 7 5Z" fill="#343434"/>
</svg>
