<svg width="32" height="32" viewBox="0 0 32 32" fill="none" xmlns="http://www.w3.org/2000/svg">
<path d="M16 16.0998C13.6 16.0998 11.6 14.0998 11.6 11.6998C11.6 9.2998 13.6 7.2998 16 7.2998C18.4 7.2998 20.4 9.2998 20.4 11.6998C20.4 14.0998 18.4 16.0998 16 16.0998ZM16 9.2998C14.7 9.2998 13.6 10.3998 13.6 11.6998C13.6 12.9998 14.7 14.0998 16 14.0998C17.3 14.0998 18.4 12.9998 18.4 11.6998C18.4 10.3998 17.3 9.2998 16 9.2998Z" fill="#343434"/>
<path d="M16 3C8.8 3 3 8.8 3 16C3 23.2 8.8 29 16 29C23.2 29 29 23.2 29 16C29 8.8 23.2 3 16 3ZM10.1 25.3C10.2 21.4 13.2 19.6 15.9 19.6C18.7 19.6 21.7 21.4 21.7 25.4C20.1 26.4 18.1 27 16 27C13.8 27 11.8 26.4 10.1 25.3ZM23.7 23.9C23 19.8 19.5 17.6 16 17.6C12.5 17.6 9 19.7 8.3 23.8C6.2 21.8 5 19 5 16C5 9.9 9.9 5 16 5C22.1 5 27 9.9 27 16C27 19.1 25.7 21.9 23.7 23.9Z" fill="#343434"/>
</svg>
