<svg width="32" height="32" viewBox="0 0 32 32" fill="none" xmlns="http://www.w3.org/2000/svg">
<path d="M15.9999 3.8999C9.3999 3.8999 3.8999 9.3999 3.8999 15.9999C3.8999 22.5999 9.3999 28.0999 15.9999 28.0999C22.5999 28.0999 28.0999 22.5999 28.0999 15.9999C28.0999 9.3999 22.5999 3.8999 15.9999 3.8999ZM10.4999 24.6999C10.4999 20.9999 13.3999 19.2999 15.9999 19.2999C18.6999 19.2999 21.4999 20.9999 21.4999 24.6999C19.8999 25.6999 18.0999 26.2999 15.9999 26.2999C13.8999 26.2999 11.9999 25.6999 10.4999 24.6999ZM23.1999 23.3999C22.5999 19.4999 19.2999 17.4999 15.9999 17.4999C12.6999 17.4999 9.3999 19.5999 8.7999 23.3999C6.7999 21.5999 5.5999 18.8999 5.5999 15.9999C5.5999 10.2999 10.2999 5.6999 15.8999 5.6999C21.4999 5.6999 26.2999 10.2999 26.2999 15.9999C26.2999 18.8999 25.0999 21.5999 23.1999 23.3999Z" fill="black"/>
<path d="M15.9999 7.8999C13.7999 7.8999 11.8999 9.6999 11.8999 11.9999C11.8999 14.2999 13.7999 15.9999 15.9999 15.9999C18.1999 15.9999 20.0999 14.1999 20.0999 11.8999C20.0999 9.7999 18.1999 7.8999 15.9999 7.8999ZM15.9999 14.3999C14.6999 14.3999 13.6999 13.3999 13.6999 12.0999C13.6999 10.7999 14.6999 9.7999 15.9999 9.7999C17.2999 9.7999 18.2999 10.7999 18.2999 12.0999C18.2999 13.3999 17.2999 14.3999 15.9999 14.3999Z" fill="black"/>
</svg>
