<svg width="32" height="32" viewBox="0 0 32 32" fill="none" xmlns="http://www.w3.org/2000/svg">
<path d="M16 14.5C18.8 14.5 21 12.3 21 9.5C21 6.7 18.8 4.5 16 4.5C13.2 4.5 11 6.7 11 9.5C11 12.3 13.2 14.5 16 14.5ZM16 6.5C17.7 6.5 19 7.8 19 9.5C19 11.2 17.7 12.5 16 12.5C14.3 12.5 13 11.2 13 9.5C13 7.8 14.3 6.5 16 6.5Z" fill="#343434"/>
<path d="M16 16.5C11 16.5 6 19.9 6 26.5C6 27.1 6.4 27.5 7 27.5C7.6 27.5 8 27.1 8 26.5C8 21 12.1 18.5 16 18.5C19.9 18.5 24 21 24 26.5C24 27.1 24.4 27.5 25 27.5C25.6 27.5 26 27.1 26 26.5C26 19.9 21 16.5 16 16.5Z" fill="#343434"/>
</svg>
