<svg width="32" height="32" viewBox="0 0 32 32" fill="none" xmlns="http://www.w3.org/2000/svg">
<path d="M16 2C8.3 2 2 8.3 2 16C2 23.7 8.3 30 16 30C23.7 30 30 23.7 30 16C30 8.3 23.7 2 16 2ZM9.6 26.1C9.6 21.8 13 19.8 16 19.8C19.1 19.8 22.4 21.8 22.4 26.1C20.6 27.3 18.4 28 16 28C13.6 28 11.4 27.3 9.6 26.1ZM24.3 24.6C23.6 20.1 19.8 17.7 16 17.7C12.2 17.7 8.4 20.1 7.7 24.6C5.4 22.5 4 19.4 4 16C4 9.4 9.4 4 16 4C22.6 4 28 9.4 28 16C28 19.4 26.6 22.5 24.3 24.6Z" fill="black"/>
<path d="M16 6.6001C13.4 6.6001 11.3 8.7001 11.3 11.3001C11.3 13.9001 13.4 16.0001 16 16.0001C18.6 16.0001 20.7 13.9001 20.7 11.3001C20.7 8.8001 18.6 6.6001 16 6.6001ZM16 14.1001C14.5 14.1001 13.3 12.9001 13.3 11.4001C13.3 9.9001 14.5 8.7001 16 8.7001C17.5 8.7001 18.7 9.9001 18.7 11.4001C18.7 12.9001 17.5 14.1001 16 14.1001Z" fill="black"/>
</svg>
