<svg width="32" height="32" viewBox="0 0 32 32" fill="none" xmlns="http://www.w3.org/2000/svg">
<path d="M16 28C22.6274 28 28 22.6274 28 16C28 9.37258 22.6274 4 16 4C9.37258 4 4 9.37258 4 16C4 22.6274 9.37258 28 16 28Z" stroke="#343434" stroke-width="2" stroke-miterlimit="10"/>
<path d="M16 15.0998C17.8777 15.0998 19.4 13.5776 19.4 11.6998C19.4 9.82204 17.8777 8.2998 16 8.2998C14.1222 8.2998 12.6 9.82204 12.6 11.6998C12.6 13.5776 14.1222 15.0998 16 15.0998Z" stroke="#343434" stroke-width="2" stroke-miterlimit="10"/>
<path d="M9.09998 25.4002C9.09998 16.3002 22.8 16.3002 22.8 25.4002" stroke="#343434" stroke-width="2" stroke-miterlimit="10"/>
</svg>
