<svg width="32" height="32" viewBox="0 0 32 32" fill="none" xmlns="http://www.w3.org/2000/svg">
<path d="M16 3.8999C9.30002 3.8999 3.90002 9.2999 3.90002 15.9999C3.90002 22.6999 9.30002 28.0999 16 28.0999C22.7 28.0999 28.1 22.6999 28.1 15.9999C28.1 9.2999 22.7 3.8999 16 3.8999ZM16 7.8999C18.2 7.8999 20.1 9.6999 20.1 11.9999C20.1 14.1999 18.3 16.0999 16 16.0999C13.7 16.0999 11.9 14.2999 11.9 11.9999C11.9 9.6999 13.8 7.8999 16 7.8999ZM16 26.3999C13.2 26.3999 10.7 25.2999 8.80002 23.4999C9.40002 19.5999 12.7 17.5999 16 17.5999C19.3 17.5999 22.5 19.5999 23.2 23.4999C21.3 25.2999 18.8 26.3999 16 26.3999Z" fill="#343434"/>
</svg>
