<svg width="32" height="32" viewBox="0 0 32 32" fill="none" xmlns="http://www.w3.org/2000/svg">
<path d="M29 14.0002C28.4 14.0002 28 14.4002 28 15.0002V15.2002H25.9C25.7 13.2002 24.9 11.4002 23.7 9.9002L25.5 8.1002C25.9 7.7002 25.9 7.1002 25.5 6.7002C25.1 6.3002 24.5 6.3002 24.1 6.7002L22.3 8.5002C20.8 7.3002 19 6.5002 17 6.3002V4.2002H17.2C17.8 4.2002 18.2 3.8002 18.2 3.2002C18.2 2.6002 17.8 2.2002 17.2 2.2002H14.8C14.2 2.2002 13.8 2.6002 13.8 3.2002C13.8 3.8002 14.2 4.2002 14.8 4.2002H15V6.3002C13 6.5002 11.2 7.3002 9.7 8.5002L7.9 6.7002C7.5 6.3002 6.9 6.3002 6.5 6.7002C6.1 7.1002 6.1 7.7002 6.5 8.1002L8.3 9.9002C7.1 11.4002 6.3 13.2002 6.1 15.2002H4V15.0002C4 14.4002 3.6 14.0002 3 14.0002C2.4 14.0002 2 14.4002 2 15.0002V17.4002C2 18.0002 2.4 18.4002 3 18.4002C3.6 18.4002 4 18.0002 4 17.4002V17.2002H6.1C6.3 19.2002 7.1 21.0002 8.3 22.5002L6.5 24.3002C6.1 24.7002 6.1 25.3002 6.5 25.7002C6.7 25.9002 6.9 26.0002 7.2 26.0002C7.5 26.0002 7.7 25.9002 7.9 25.7002L9.7 23.9002C11.2 25.1002 13 25.9002 15 26.1002V28.2002H14.8C14.2 28.2002 13.8 28.6002 13.8 29.2002C13.8 29.8002 14.2 30.2002 14.8 30.2002H17.2C17.8 30.2002 18.2 29.8002 18.2 29.2002C18.2 28.6002 17.8 28.2002 17.2 28.2002H17V26.1002C19 25.9002 20.8 25.1002 22.3 23.9002L24.1 25.7002C24.3 25.9002 24.6 26.0002 24.8 26.0002C25 26.0002 25.3 25.9002 25.5 25.7002C25.9 25.3002 25.9 24.7002 25.5 24.3002L23.7 22.5002C24.9 21.0002 25.7 19.2002 25.9 17.2002H28V17.4002C28 18.0002 28.4 18.4002 29 18.4002C29.6 18.4002 30 18.0002 30 17.4002V15.0002C30 14.4002 29.6 14.0002 29 14.0002ZM16 24.2002C11.6 24.2002 8 20.6002 8 16.2002C8 11.8002 11.6 8.2002 16 8.2002C20.4 8.2002 24 11.8002 24 16.2002C24 20.6002 20.4 24.2002 16 24.2002Z" fill="#343434"/>
<path d="M17 11.2002C14.8 11.2002 13 13.0002 13 15.2002C13 17.4002 14.8 19.2002 17 19.2002C19.2 19.2002 21 17.4002 21 15.2002C21 13.0002 19.2 11.2002 17 11.2002ZM17 17.2002C15.9 17.2002 15 16.3002 15 15.2002C15 14.1002 15.9 13.2002 17 13.2002C18.1 13.2002 19 14.1002 19 15.2002C19 16.3002 18.1 17.2002 17 17.2002Z" fill="#343434"/>
</svg>
