<svg width="32" height="32" viewBox="0 0 32 32" fill="none" xmlns="http://www.w3.org/2000/svg">
<path d="M16 3.8999C9.4 3.8999 4 9.2999 4 15.8999C4 22.4999 9.4 27.8999 16 27.8999C22.6 27.8999 28 22.4999 28 15.8999C28 9.1999 22.6 3.8999 16 3.8999ZM16 25.8999C10.5 25.8999 6 21.3999 6 15.8999C6 10.3999 10.5 5.8999 16 5.8999C21.5 5.8999 26 10.3999 26 15.8999C26 21.3999 21.5 25.8999 16 25.8999Z" fill="#343434"/>
<path d="M16 20.8999C15.6 20.8999 15.3 20.9999 15 21.2999C14.7 21.5999 14.6 21.8999 14.6 22.2999C14.6 22.6999 14.7 22.9999 15 23.2999C15.3 23.5999 15.6 23.6999 16 23.6999C16.4 23.6999 16.7 23.5999 17 23.2999C17.3 22.9999 17.4 22.6999 17.4 22.2999C17.4 21.8999 17.3 21.5999 17 21.2999C16.7 20.9999 16.4 20.8999 16 20.8999Z" fill="#343434"/>
<path d="M16.8 19.4997L17.3 8.69971H14.7L15.2 19.4997H16.8Z" fill="#343434"/>
</svg>
