<svg width="32" height="32" viewBox="0 0 32 32" fill="none" xmlns="http://www.w3.org/2000/svg">
<path d="M22.4 18.8002C22.1 18.6002 20.3 17.8002 20 17.7002C19.7 17.6002 19.4 17.5002 19.2 17.9002C19 18.2002 18.3 19.0002 18.1 19.3002C17.9 19.5002 17.7 19.6002 17.3 19.4002C17 19.2002 15.8 18.9002 14.5 17.7002C13.5 16.8002 12.8 15.6002 12.6 15.3002C12.4 15.0002 12.6 14.8002 12.8 14.6002C13 14.4002 13.1 14.2002 13.3 14.0002C13.5 13.8002 13.5 13.7002 13.6 13.4002C13.7 13.2002 13.7 13.0002 13.6 12.8002C13.5 12.6002 12.8 10.9002 12.5 10.2002C12.2 9.50015 11.9 9.60015 11.7 9.60015C11.5 9.60015 11.3 9.60015 11 9.60015C10.8 9.60015 10.4 9.70015 10.1 10.0002C9.9 10.3002 9 11.1002 9 12.8002C9 14.5002 10.2 16.2002 10.4 16.4002C10.6 16.6002 12.9 20.1002 16.3 21.7002C17.1 22.1002 17.8 22.3002 18.3 22.4002C19.1 22.7002 19.9 22.6002 20.5 22.5002C21.2 22.4002 22.6 21.7002 22.8 20.8002C23.1 20.0002 23.1 19.3002 23 19.1002C23 19.1002 22.8 19.0002 22.4 18.8002Z" fill="#343434"/>
<path d="M25.9 6.1C23.3 3.5 19.8 2 16.1 2C8.4 2 2.1 8.2 2.1 15.9C2.1 18.4 2.7 20.8 4 22.9L2 30.1L9.4 28.2C11.4 29.3 13.7 29.9 16.1 29.9C23.8 29.9 30 23.6 30 16C30 12.2 28.6 8.7 25.9 6.1ZM16.1 27.5C14 27.5 12 26.9 10.2 25.9L9.8 25.6L5.4 26.7L6.6 22.4L6.3 22C5.1 20.2 4.5 18 4.5 15.8C4.5 9.4 9.7 4.2 16.1 4.2C19.2 4.2 22.1 5.4 24.3 7.6C26.5 9.8 27.7 12.7 27.7 15.8C27.6 22.3 22.5 27.5 16.1 27.5Z" fill="#343434"/>
</svg>
