<svg width="32" height="32" viewBox="0 0 32 32" fill="none" xmlns="http://www.w3.org/2000/svg">
<path d="M17.4 15.9999L26 7.4999C26.4 7.0999 26.4 6.4999 26 6.0999C25.6 5.6999 25 5.6999 24.6 6.0999L16 14.5999L7.49995 5.9999C7.09995 5.6999 6.39995 5.6999 5.99995 5.9999C5.59995 6.2999 5.59995 6.9999 5.99995 7.3999L14.5 15.8999L5.99995 24.4999C5.59995 24.8999 5.59995 25.4999 5.99995 25.8999C6.19995 26.0999 6.49995 26.1999 6.69995 26.1999C6.89995 26.1999 7.19995 26.0999 7.39995 25.8999L15.9 17.3999L24.4 25.8999C24.6 26.0999 24.9 26.1999 25.1 26.1999C25.3 26.1999 25.5999 26.0999 25.7999 25.8999C26.1999 25.4999 26.1999 24.8999 25.7999 24.4999L17.4 15.9999Z" fill="black"/>
</svg>
