<svg width="32" height="32" viewBox="0 0 32 32" fill="none" xmlns="http://www.w3.org/2000/svg">
<path d="M16 5C9.9 5 5 9.9 5 16C5 22.1 9.9 27 16 27C22.1 27 27 22.1 27 16C27 9.9 22.1 5 16 5ZM16 25C11 25 7 21 7 16C7 11 11 7 16 7C21 7 25 11 25 16C25 21 21 25 16 25Z" fill="black"/>
<path d="M16.8 13.8999H15V22.6999H16.8V13.8999Z" fill="black"/>
<path d="M15.9 10C15.6 10 15.3 10.1 15.1 10.3C14.9 10.5 14.8 10.8 14.8 11.1C14.8 11.4 14.9 11.7 15.1 11.9C15.3 12.1 15.6 12.2 15.9 12.2C16.2 12.2 16.5 12.1 16.7 11.9C16.9 11.7 17 11.4 17 11.1C17 10.8 16.9 10.5 16.7 10.3C16.5 10.1 16.2 10 15.9 10Z" fill="black"/>
</svg>
