<svg width="32" height="32" viewBox="0 0 32 32" fill="none" xmlns="http://www.w3.org/2000/svg">
<path d="M26.6 15.0998H11.3V7.5998C11.3 4.2998 13.6 2.7998 16 2.7998C17.2 2.7998 18.4 3.1998 19.2 3.9998C20.1 4.8998 20.6 6.0998 20.6 7.5998V10.3998C20.6 10.9998 21 11.3998 21.6 11.3998C22.2 11.3998 22.6 10.9998 22.6 10.3998V7.5998C22.6 3.0998 19.3 0.799805 15.9 0.799805C12.5 0.799805 9.30002 3.0998 9.30002 7.5998V15.0998H5.40002C4.80002 15.0998 4.40002 15.4998 4.40002 16.0998V30.1998C4.40002 30.7998 4.80002 31.1998 5.40002 31.1998H26.6C27.2 31.1998 27.6 30.7998 27.6 30.1998V16.0998C27.6 15.4998 27.1 15.0998 26.6 15.0998ZM25.6 17.0998V29.1998H6.40002V17.0998H25.6Z" fill="black"/>
</svg>
