<svg width="32" height="32" viewBox="0 0 32 32" fill="none" xmlns="http://www.w3.org/2000/svg">
<path d="M15.0001 5.5V24.1L12.3001 21.4C11.9001 21 11.3001 21 10.9001 21.4C10.5001 21.8 10.5001 22.4 10.9001 22.8L15.3001 27.2C15.7001 27.6 16.3001 27.6 16.7001 27.2L21.1001 22.8C21.3001 22.6 21.4001 22.3 21.4001 22.1C21.4001 21.9 21.3001 21.6 21.1001 21.4C20.7001 21 20.1001 21 19.7001 21.4L17.0001 24.1V5.5C17.0001 4.9 16.6001 4.5 16.0001 4.5C15.4001 4.5 15.0001 4.9 15.0001 5.5Z" fill="black"/>
</svg>
