<svg width="32" height="32" viewBox="0 0 32 32" fill="none" xmlns="http://www.w3.org/2000/svg">
<path d="M16 5C9.9 5 5 9.9 5 16C5 22.1 9.9 27 16 27C22.1 27 27 22.1 27 16C27 9.9 22.1 5 16 5ZM16 25C11 25 7 21 7 16C7 11 11 7 16 7C21 7 25 11 25 16C25 21 21 25 16 25Z" fill="black"/>
<path d="M16.7999 19.3002L17.0999 9.7002H14.8999L15.2999 19.3002H16.7999Z" fill="black"/>
<path d="M16 20.6001C15.7 20.6001 15.4 20.7001 15.1 21.0001C14.9 21.2001 14.7 21.5001 14.7 21.9001C14.7 22.2001 14.8 22.5001 15.1 22.8001C15.3 23.0001 15.6 23.2001 16 23.2001C16.4 23.2001 16.6 23.1001 16.9 22.8001C17.2 22.5001 17.3 22.3001 17.3 21.9001C17.3 21.6001 17.2 21.3001 16.9 21.0001C16.6 20.7001 16.3 20.6001 16 20.6001Z" fill="black"/>
</svg>
